<?xml version="1.0" encoding="UTF-8" standalone="no"?>
<!DOCTYPE svg PUBLIC "-//W3C//DTD SVG 1.1//EN" "http://www.w3.org/Graphics/SVG/1.1/DTD/svg11.dtd">
<svg width="100%" height="100%" viewBox="0 0 1383 507" version="1.1" xmlns="http://www.w3.org/2000/svg" xmlns:xlink="http://www.w3.org/1999/xlink" xml:space="preserve" xmlns:serif="http://www.serif.com/" style="fill-rule:evenodd;clip-rule:evenodd;stroke-linejoin:round;stroke-miterlimit:2;">
    <g>
        <path d="M18.51,334.11C17.49,331.56 20.1,326.81 22.83,326.24C26.29,325.52 26.97,324.18 25.65,321.16C28.73,319.08 31.76,317.03 34.97,314.85C35.19,315.32 35.54,316.04 36.02,317.03C36.78,316.43 37.68,316 38.19,315.29C40.22,312.41 42.39,310.24 46.27,309.47C48.48,309.03 50.22,306.22 52.15,304.45C56.72,300.25 61.4,296.15 65.79,291.76C67.7,289.84 71.45,289.54 71.37,285.73C71.37,285.37 71.82,284.8 72.19,284.65C81.03,281.03 85.1,272.52 91.11,266.05C95.87,260.93 99.88,255.13 104.55,249.92C119.28,233.5 133.28,216.5 145.6,198.18C149.5,192.37 152.75,186.13 156.44,180.17C158.58,176.72 161.14,173.53 163.25,170.07C169.02,160.59 174.76,151.08 177.55,140.17C177.7,139.57 178.11,138.98 178.07,138.41C177.91,136.02 177.62,133.63 177.38,131.24C175.48,131.67 173.5,131.9 171.7,132.59C169.41,133.46 167.25,134.69 165.05,135.8C161.51,137.58 159.92,137.06 157.86,133.81C156.35,131.44 154.73,129.09 152.79,127.08C152.06,126.33 150.27,126.24 149.04,126.4C146.33,126.77 145.72,125.51 146.76,123.48C148.14,120.77 150.11,118.36 151.51,115.66C152.18,114.37 152.11,112.7 152.38,111.2C150.61,111.47 148.45,111.18 147.15,112.1C143.59,114.64 140.6,117.99 137,120.47C133.16,123.12 128.88,125.14 123.9,127.93C129.06,121.83 133.42,116.18 138.29,111C152.98,95.35 167.94,79.94 179.78,61.91C184.09,55.34 188.5,48.74 191.86,41.68C195.44,34.16 198.39,26.2 195.94,17.44C195.16,14.65 196.2,12.71 199.36,11.53C205.58,9.22 212.26,7.94 217.39,3.07C220.48,0.13 224.35,0.08 227.97,2.49C231.43,4.8 234.92,7.1 238.14,9.72C246.61,16.61 255.25,23.34 263.2,30.8C268.34,35.63 273.26,41.17 276.56,47.32C278.64,51.21 278.87,57.18 277.63,61.57C273.97,74.47 265.24,83.83 254.43,91.62C241.32,101.07 226.92,107.96 212.18,114.26C209.28,115.5 206.03,115.95 203.13,117.19C201.61,117.84 200.04,119.23 199.39,120.69C199.09,121.35 200.71,123.41 201.89,124.1C206.1,126.58 210.68,128.46 214.73,131.15C216.52,132.34 218.08,134.76 218.54,136.89C220.34,145.32 217.11,152.74 213.45,160.17C208.13,170.95 199.85,179.45 192.39,188.58C186.49,195.8 179.59,202.22 175.93,211.11C174.62,214.29 175.04,216.49 178.27,217.99C180.72,219.13 183.16,220.32 185.65,221.38C191.69,223.93 194.56,228.87 194.9,235C195.39,243.73 195.46,252.5 195.26,261.24C195.11,267.5 193.95,273.74 193.77,280.01C193.68,283.26 194.5,286.6 195.39,289.77C195.7,290.89 197.39,292.28 198.51,292.33C199.61,292.38 201.37,291.13 201.81,290.03C204.2,284.09 206.51,278.1 208.4,271.99C213.03,257.04 217.26,241.97 221.98,227.05C224.64,218.65 227.96,210.46 231.22,201.53C234.71,204.92 228.53,210.65 235.75,211.78C234.09,213.32 233.07,214.27 231.92,215.34C232.39,216.23 232.88,217.17 233.53,218.4C232.32,218.3 231.24,218.21 228.93,218.02C233.12,221.58 232.06,223.41 229.77,226.93C227.04,231.12 223.84,236 224.89,242.11C225.3,244.5 223.28,247.29 222.43,249.92C217.52,265.16 216.36,281.04 214.09,296.77C211.84,312.37 214.86,327.44 216.27,342.74C217.1,351.72 216.81,360.63 213.05,369.25C210.37,375.39 208.04,381.67 209.48,388.89C210.06,391.81 208.45,395.39 207.14,398.36C206.58,399.64 204.29,400.75 202.69,400.88C195.94,401.46 189.11,402.28 182.4,401.81C174.23,401.24 167.15,397.76 161.63,391.22C152.25,380.09 150.19,366.73 149.01,352.95C147.86,339.6 148.37,326.34 150.56,313.15C151.59,306.96 153.14,300.86 154.21,294.67C155.81,285.47 157.18,276.23 158.7,267.02C159.68,261.08 160.98,255.18 161.69,249.2C162.09,245.82 161.9,242.29 161.39,238.92C160.92,235.79 158.44,234.85 155.92,236.82C152.24,239.7 148.76,242.87 145.34,246.06C134.55,256.13 124.35,266.94 112.83,276.08C107.97,279.94 103.7,284.28 99.06,288.28C95.41,291.42 91.72,294.52 88.08,297.68C87.76,297.95 87.76,298.56 87.48,298.91C86.63,299.97 85.72,300.97 84.84,302C83.54,300.7 80.28,301.74 80.67,298.3C80.78,297.36 79.78,296.29 78.83,294.34C78.12,296.16 77.91,297.07 77.44,297.81C76.76,298.9 76.1,300.22 75.06,300.84C72.72,302.25 70.04,303.12 67.76,304.6C66.92,305.15 66.81,306.81 65.9,307.55C64.74,308.98 63.58,310.41 62.43,311.86C62.28,312.05 62.2,312.49 62.11,312.49C57,312.27 56,320.17 50.09,318.6C49.51,318.45 48.05,319.81 47.76,320.72C46.59,324.35 44.25,325.03 40.8,323.62C40.99,324.03 41.18,324.43 41.37,324.84C39.41,325.83 37.42,326.77 35.51,327.85C34.87,328.21 34.3,328.88 33.95,329.55C32.76,331.8 31.13,332.83 28.3,331.79C29.1,330.61 29.82,329.56 30.57,328.45C27.21,327.91 25.63,329.4 25.86,332.5C25.91,333.18 25.36,334.17 24.77,334.56C24.2,334.94 23.23,334.84 22.45,334.76C21.12,334.62 19.81,334.34 18.49,334.11L18.53,334.14L18.51,334.11ZM83.34,286.56C84.87,287.68 85.61,288.23 86.36,288.78C85.61,289.43 84.92,290.18 84.09,290.71C82.93,291.46 81.68,292.05 80.46,292.7C81.1,293.79 81.73,294.88 82.35,295.94C85,293.6 87.15,291.8 89.19,289.87C91.79,287.41 92.88,284.82 88.92,281.88C88.27,283.28 87.67,284.58 87.32,285.33C85.74,285.81 84.52,286.19 83.34,286.55L83.34,286.56Z" style="fill:rgb(44,21,17);fill-rule:nonzero;"/>
        <path d="M390.89,158.15C392.2,158.73 393.4,159.26 395.59,160.23C393.87,160.37 392.95,160.75 392.46,160.44C389.81,158.75 389.23,160.68 388.98,162.51C388.71,164.45 389.28,166.54 388.83,168.4C388.17,171.12 386.93,173.7 385.93,176.34C384.93,178.98 383.68,181.56 382.98,184.28C382.24,187.16 381.91,190.16 381.63,193.14C381.39,195.69 382.98,196.64 385.13,195.69C388.72,194.11 392.3,192.42 395.61,190.33C411.31,180.41 426.86,170.24 442.59,160.36C447.24,157.44 452.31,155.19 457.16,152.58C460.27,150.91 463.29,149.09 466.43,147.48C474.25,143.48 482.7,142.5 491.18,143.84C497.94,144.91 501.75,150.49 496.44,156.69C491.81,162.1 486.62,167.04 481.91,172.39C479.74,174.85 477.79,177.64 476.34,180.58C474.58,184.14 472.14,186.81 468.38,187.78C462.04,189.41 458.28,194.49 453.35,198.04C448.5,201.53 448.8,205.54 448.89,210.43C449.28,231.99 449.42,253.55 449.49,275.11C449.52,284.85 449.1,294.59 449.06,304.33C448.98,324.44 449.62,344.5 452.03,364.52C453.31,375.14 453.1,385.93 453.54,396.65C453.73,401.33 454.26,406.05 453.88,410.68C453.59,414.22 452.21,417.69 451.12,421.13C450.32,423.65 449.41,426.18 448.16,428.5C447.51,429.71 446.18,431 444.9,431.37C435.23,434.13 425.31,435.06 415.39,433.46C408.63,432.37 402.86,428.52 397.86,424.03C393.77,420.36 388.83,419.05 384.02,417.12C381.43,416.08 379.1,414.38 376.66,412.96C375.55,412.31 374.4,410.94 373.39,411.05C368.73,411.57 364.94,410.03 361.48,407.09C360.93,406.62 359.68,407.04 359.01,406.63C357.94,405.96 357.02,404.99 356.24,403.99C356.14,403.87 357.41,402.86 357.78,402.13C358.14,401.43 358.17,400.55 358.39,399.53C361.15,399.19 363.86,398.88 366.65,401.3C368.03,402.5 371.02,401.85 373.95,402.09C374.83,403.37 379.08,403.26 381.46,400.62C388.63,392.65 395.7,384.54 400.27,374.71C401.71,371.62 402.57,368.24 403.53,364.94C404.92,360.22 406.19,355.46 407.44,350.7C407.84,349.17 408.19,347.58 408.25,346C409.62,312.83 409.99,279.66 407.57,246.51C407.24,241.97 407.69,237.37 407.39,232.82C407.26,230.8 406.62,227.57 405.43,227.15C403.31,226.41 400.43,226.97 398.14,227.77C395.64,228.64 393.51,230.51 391.12,231.75C383.97,235.45 375.96,231.87 373.42,224.29C372.15,220.5 369.68,217.11 368.5,213.3C367.45,209.9 367.47,206.17 366.93,202.6C366.62,200.55 366.27,198.48 365.67,196.5C365.14,194.74 363.93,193.06 366.58,191.99C366.93,191.85 367.33,191.38 367.37,191.02C368.36,181.65 372.68,173.89 378.8,166.96C379.33,166.36 379.48,165.42 380.01,164.8C380.77,163.9 381.59,162.63 382.58,162.42C387.31,161.41 387.34,161.52 390.87,158.15L390.89,158.15ZM420.48,238.74C419.18,241.56 416.87,244.43 416.67,247.43C416.15,255.28 416.49,263.2 416.61,271.08C416.81,283.91 417.49,296.74 417.24,309.56C417,322.21 416,334.86 415.02,347.49C414.71,351.45 413.39,355.33 412.44,359.23C412.28,359.9 411.49,360.41 411.3,361.08C410.19,365.03 409,368.98 408.24,373C408.06,373.94 409.25,375.81 410.17,376.1C411.32,376.46 413.42,376.08 414.09,375.22C415.72,373.15 417.46,370.74 417.93,368.23C419.5,359.92 423.36,351.91 421.7,343.11C424.54,338.79 423.01,334.01 423.24,329.39C423.56,322.7 424.15,316.03 424.66,309.35C424.8,307.49 425.46,305.6 425.23,303.81C424.83,300.73 423.58,297.74 423.27,294.66C422.56,287.52 422.15,280.34 421.73,273.17C421.66,272.01 422.2,270.83 422.32,269.65C422.42,268.6 422.46,267.5 422.3,266.46C421.65,262.2 420.86,257.97 420.28,253.71C420.2,253.13 421.03,252.42 421.45,251.77C422.08,252.19 422.75,252.57 423.34,253.05C423.71,253.36 423.96,253.81 424.27,254.21C424.81,249.99 424.58,245.99 424.47,241.99C424.3,235.93 424.33,235.93 417.77,235.1C418.79,236.47 419.82,237.84 420.48,238.73L420.48,238.74Z" style="fill:rgb(44,21,17);fill-rule:nonzero;"/>
        <path d="M355.67,186.22C355.53,187.61 355.64,189.09 355.2,190.37C353.47,195.4 351.26,200.29 349.8,205.4C347.65,212.94 346.01,220.62 344.14,228.23C342.24,235.98 340.33,243.72 338.44,251.47C336.49,259.48 334.69,267.53 332.59,275.5C331.16,280.95 329.04,286.22 327.76,291.69C325.6,300.91 323.56,310.19 322.05,319.53C320.44,329.43 314.41,336.11 307.06,342C306.07,342.79 304.61,343.1 303.32,343.39C288.04,346.82 278.51,337.94 274.64,324.94C269.29,306.97 271.58,289.54 277.43,272.39C279.38,266.68 283.48,261.73 286.31,256.29C288.5,252.09 290.73,247.8 292.07,243.29C293.36,238.93 291,234.99 288.07,231.91C278.92,222.24 269.96,212.32 260.09,203.42C255.01,198.84 254.01,193.22 253.68,187.67C253.47,184.12 256.4,180.19 258.47,176.76C260.18,173.93 262.68,171.57 264.83,169.01C265.2,169.22 265.57,169.43 265.94,169.64C265.63,170.83 265.23,172.01 265.03,173.22C264.44,176.93 263.45,180.65 263.51,184.36C263.58,188.89 266.96,193.76 272.67,189.98C282.98,183.16 294.13,185.8 304.97,186.52C308.07,186.72 311.05,190.68 313.85,193.19C316.57,195.63 318.84,198.57 321.55,201.03C324.93,204.1 325.49,207.76 323.72,211.98C322.23,215.53 321.02,219.35 320.62,223.15C319.97,229.33 315.29,232.98 312.45,237.76C311.96,238.59 311.21,239.32 310.44,239.92C301.9,246.58 296.71,255.71 292.81,265.42C291.21,269.4 291.07,274.4 291.67,278.74C292.53,284.93 299.5,286.83 304.11,282.61C311.94,275.44 318.9,267.63 323.78,258.02C326.54,252.59 330.49,247.77 333.35,242.37C335.52,238.29 336.85,233.75 338.48,229.39C340.7,223.44 342.97,217.51 344.99,211.49C346.14,208.06 346.64,204.42 347.8,201C349.38,196.32 351.28,191.74 353.13,187.15C353.35,186.6 354.13,186.28 354.65,185.86C354.98,185.98 355.32,186.11 355.65,186.23L355.67,186.22Z" style="fill:rgb(44,21,17);fill-rule:nonzero;"/>
        <path d="M402.93,144.2C403.62,145.42 404,146.1 404.51,147.01C407.16,144.67 410.01,142.96 409.89,138.76C409.84,137.1 411.45,135.37 412.4,133.72C413.18,132.39 414.1,131.14 415.02,129.77C416.07,130.27 417.2,130.81 418.43,131.39C419.03,125.54 418.47,124.05 413.36,122.91C406.38,121.35 399.31,121.22 392.53,124.29C391.89,124.58 390.44,124.5 390.32,124.21C389.99,123.39 389.87,122.25 390.21,121.46C390.88,119.9 392.12,118.58 392.76,117.01C395.24,110.97 394.76,109.07 389.93,104.68C385.57,100.72 381.06,96.91 376.89,92.77C375.79,91.67 374.94,89.35 375.34,88.01C375.67,86.92 378,86.25 379.55,85.76C387.49,83.22 395.54,81.03 403.4,78.28C410.13,75.93 416.45,72.02 423.32,70.53C434.92,68.01 446.46,68.55 456.11,77.09C463.6,83.71 464.96,98.14 459.22,106.33C451.17,117.81 439.81,124.63 427.18,129.74C425.88,130.27 424.28,130.07 422.82,130.22C420.78,135.43 416.8,138.71 412.27,141.76C409.55,143.59 407.58,146.54 405.32,149.03C404.59,149.83 404.15,150.95 403.31,151.56C402.33,152.27 401.06,152.59 399.92,153.07C399.87,151.7 399.43,150.19 399.87,148.99C400.44,147.4 401.7,146.06 402.92,144.22L402.93,144.2Z" style="fill:rgb(44,21,17);fill-rule:nonzero;"/>
        <path d="M297.28,102.02C301.1,102.02 304.93,101.9 308.74,102.04C317.27,102.36 324.44,105.35 331.03,111.18C336.4,115.93 341.19,120.71 344.21,127.23C347.6,134.55 345.66,140.5 338.11,143.19C327.72,146.9 317.15,149.38 306,145.78C302.32,144.59 298.31,144.66 294.54,146.83C292.95,147.74 290.67,147.47 288.71,147.74C289.73,146.1 290.58,144.32 291.82,142.87C293.17,141.29 294.93,140.07 296.41,138.59C299.33,135.66 299.21,134.25 295.85,131.86C288.8,126.84 283.25,120.45 279.21,112.87C278.18,110.93 278.05,108.2 278.33,105.94C278.69,103 280.92,101.75 283.96,101.83C288.39,101.95 292.83,101.86 297.27,101.86L297.27,102.02L297.28,102.02Z" style="fill:rgb(44,21,17);fill-rule:nonzero;"/>
        <path d="M236.83,208.85C232.33,205.56 232.63,203.67 237.25,199.11C236.46,198.36 235.67,197.62 234.88,196.87C236.18,196.54 237.48,196.22 238.11,196.06C239.16,193.67 240.14,191.42 241.13,189.17C243.04,196.6 238.31,201.94 236.83,208.85Z" style="fill:rgb(44,21,17);fill-rule:nonzero;"/>
        <path d="M250.52,164.52C249.92,166.53 249.32,168.54 248.72,170.55C248.34,170.46 247.97,170.36 247.59,170.27C247.86,170.88 248.13,171.49 248.56,172.45L244.58,172.45C246.24,169.61 247.81,166.93 249.39,164.24C249.77,164.34 250.14,164.43 250.52,164.53L250.52,164.52Z" style="fill:rgb(44,21,17);fill-rule:nonzero;"/>
        <path d="M378.1,138.97C379.5,137.42 380.89,135.87 382.7,133.86C383.47,137.82 382.41,139.06 378.1,138.97Z" style="fill:rgb(44,21,17);fill-rule:nonzero;"/>
        <path d="M644.19,485.04C643.98,487.42 643.77,489.79 643.56,492.24C641.267,491.28 641.073,488.88 642.98,485.04L644.19,485.04Z" style="fill:rgb(44,21,17);fill-rule:nonzero;"/>
        <path d="M1311.71,222.95C1312.51,227.81 1308.38,228.73 1306.76,231.56C1304.99,228.27 1305.83,226.83 1311.71,222.95Z" style="fill:rgb(44,21,17);fill-rule:nonzero;"/>
        <path d="M951.11,230.38C951.78,229.02 952.05,227.82 952.79,227.1C957.8,222.24 955.99,216.81 954.38,211.3C953.57,208.55 952,205.44 954.52,203C956.71,200.88 959.77,200.32 962.79,201.36C963.9,201.74 965.03,202.45 965.8,203.32C968.97,206.89 971.92,210.67 975.13,214.21C979.64,219.19 978.53,228 972.85,231.06C972.01,231.51 971,231.91 970.08,231.87C964.34,231.64 958.6,231.3 952.86,230.96C952.41,230.93 951.97,230.66 951.12,230.36L951.11,230.38Z" style="fill:rgb(44,21,17);fill-rule:nonzero;"/>
        <path d="M18.47,334.08C17.61,334.45 16.74,334.81 15.89,335.2C11.38,337.22 11.45,337.19 13.92,341.35C14.32,342.03 14.18,343.72 13.64,344.14C10.03,347.03 6.07,349.36 1.37,350.04C0.96,350.1 0.5,349.84 -0.01,349.04C1.19,348.8 2.39,348.56 3.59,348.32C3.42,348.14 3.25,347.97 3.09,347.79C5.54,344.93 7.99,342.06 10.44,339.2C10.12,338.91 9.81,338.62 9.49,338.33C8.45,339.19 7.41,340.05 6.36,340.91C6.13,340.8 5.9,340.69 5.67,340.58C6.55,338.48 7.42,336.39 8.59,333.61C11.43,333.75 14.95,333.92 18.49,334.1C18.51,334.11 18.47,334.08 18.47,334.08Z" style="fill:rgb(44,21,17);fill-rule:nonzero;"/>
        <path d="M595.77,348.11C595.4,352.8 594.87,357.4 591.49,361.12C587.86,365.12 581.78,365.3 577.87,361.66C574.82,358.82 571.32,356.44 568.38,353.49C566.54,351.65 564.61,349.31 564.06,346.9C562.94,341.9 562.57,336.7 562.24,331.57C562.15,330.22 563.1,327.87 564.03,327.61C565.29,327.26 567.4,328.07 568.42,329.11C572.17,332.9 577.17,333.58 581.85,335.02C585.21,336.05 589.05,336.05 591.98,337.73C593.89,338.83 594.71,342.05 595.7,344.45C596.13,345.5 595.77,346.88 595.77,348.11Z" style="fill:rgb(44,21,17);fill-rule:nonzero;"/>
        <path d="M530.89,211.29C533.26,208.61 534.82,206.63 536.61,204.89C539.43,202.15 539.73,199.24 536.94,196.59C534.47,194.25 531.41,192.46 529.2,189.93C527.75,188.27 526.48,185.63 526.67,183.57C526.93,180.85 529.08,179.04 532.39,178.94C538.25,178.76 544.12,177.76 549.95,177.99C552.79,178.1 555.8,179.82 558.29,181.47C562.5,184.27 566.88,187.12 570.23,190.81C575.34,196.44 572.21,205.55 564.16,207.3C557.95,208.65 551.9,210.75 545.51,212.6C541.94,205.49 536.69,211.14 530.88,211.29L530.89,211.29Z" style="fill:rgb(44,21,17);fill-rule:nonzero;"/>
        <path d="M815.3,284.16C813.67,284.28 812.79,284.16 812.05,284.42C808.37,285.73 805.44,284.09 802.93,281.83C800.75,279.87 798.58,277.64 797.24,275.1C796.28,273.27 796.05,270.52 796.67,268.55C797.24,266.74 799.25,266.05 801.82,266.42C803.99,266.74 806.6,265.54 808.72,264.43C814.92,261.21 820.79,257.27 827.15,254.45C831.5,252.52 834.75,249.7 837.88,246.38C841.56,242.48 850.17,240.54 854.64,243.34C857.51,245.14 859.45,248.45 861.74,251.14C862.75,252.32 864.13,253.51 864.43,254.9C865.14,258.19 864.81,261.21 860.83,262.64C856.48,264.2 852.33,266.38 847.94,267.81C841.36,269.94 835.6,273.16 830.92,278.31C822.58,287.49 814.17,296.6 805.81,305.75C803.47,308.31 803.04,311.27 804.66,314.29C805.85,316.52 807.35,318 810.53,317.23C813.23,316.57 816.22,317.09 819.89,317.09C817.24,322.02 816.17,326.47 819.35,331.04C814.3,333.42 815.89,338.09 815.28,341.83C814.73,345.18 814.76,348.79 815.38,352.13C815.91,354.97 817.24,357.89 818.96,360.22C820.5,362.31 821.54,363.88 820.26,366.47C819.72,367.57 819.83,369.12 820,370.42C820.5,374.29 821.17,378.13 821.75,381.81C813.97,385.27 807.14,383.91 802.88,377.45C798.51,370.82 794.54,363.86 791.17,356.69C789.5,353.15 789.09,348.81 788.92,344.81C788.49,334.63 788.5,324.44 788.38,314.25C788.37,313.15 788.52,312.03 788.7,310.94C789,309.12 789.85,308.46 791.82,309.16C798.34,311.47 798.17,311.3 801.58,305.6C805.36,299.29 809.54,293.22 813.54,287.04C813.99,286.34 814.42,285.63 815.33,284.16L815.3,284.16Z" style="fill:rgb(44,21,17);fill-rule:nonzero;"/>
        <path d="M884.72,367.14C876.52,370.24 876.42,370.59 882.47,377.02C879.3,378.39 876.37,379.69 873.43,380.93C867.51,383.43 861.43,384.36 855.05,382.94C853.53,382.6 851.86,382.94 850.26,382.94L829.7,382.94C828.42,378.62 827.45,375.02 826.29,371.48C825.07,367.75 827.05,363.64 830.98,362.32C843.42,358.14 852.61,349.61 859.72,339.16C863.75,333.24 867.17,326.53 866.4,318.52C865.69,311.04 862.03,308.57 855.19,311.26C848.55,313.87 841.7,316.03 834.79,317.83C833.2,318.24 831.01,316.36 828.3,315.2C830.67,313.5 832.29,312.3 833.96,311.14C845.41,303.18 857.23,295.94 870.44,291.18C875.39,289.4 879.49,289.49 884.33,292.48C890.21,296.12 895.3,300.63 900.35,305.11C904.39,308.69 906.32,313.64 905.04,319.62C904.23,323.41 904.62,327.44 901.85,330.65C901.07,331.55 900.56,332.78 899.63,333.44C894.3,337.19 888.5,340.37 883.58,344.59C878.87,348.62 874.83,353.5 870.92,358.35C869.07,360.64 871.29,363.41 874.92,363.43C878.66,363.45 881.77,364.73 884.73,367.15L884.72,367.14Z" style="fill:rgb(44,21,17);fill-rule:nonzero;"/>
        <path d="M643.79,440.35C642.98,441.13 641.5,441.89 641.47,442.7C641.14,450.33 640.93,457.97 640.97,465.6C640.97,467.73 641.9,469.85 642.55,472.62C643.9,470.06 644.75,468.45 645.6,466.83C645.98,466.98 646.36,467.13 646.75,467.27C646.39,470.79 648.04,474.58 644.48,478.71C643.45,476.28 642.71,474.55 641.98,472.81C641.61,472.85 641.24,472.9 640.87,472.94C640.67,481.42 641.32,490.11 634.73,497.36C635.61,497.32 636.02,497.31 636.43,497.27C636.75,497.23 637.07,497.13 637.77,496.98C636.82,499.54 634.44,502.35 640.14,503.13C638.43,504.64 637.43,505.52 636.45,506.38C631.06,501.5 635.21,494.8 632.39,489.38C633.12,489.5 633.73,489.61 634.17,489.68C634.93,488.08 635.67,486.52 636.56,484.64C636.47,484.58 635.8,484.14 635.13,483.7C635.47,483.54 635.82,483.37 636.16,483.21C635.59,481.63 634.96,480.08 634.47,478.47C634.05,477.1 633.46,475.66 633.54,474.29C633.95,467.62 634.81,460.97 635.03,454.29C635.18,449.53 634.92,444.69 634.22,439.97C633.28,433.57 631.49,427.29 630.58,420.89C630.18,418.11 631.1,415.14 631.32,412.25C631.47,410.23 631.39,408.19 631.51,406.17C631.53,405.82 632.05,405.5 633.09,404.29L633.09,410.69L634.69,410.74C634.75,408.36 635,405.96 634.8,403.6C634.64,401.83 633.54,400.12 633.52,398.37C633.5,396.92 634.44,395.46 635.2,393.31C632.99,394.5 631.52,395.29 629.33,396.47C628.7,392.5 627.65,388.93 627.64,385.36C627.6,369.35 627.99,353.35 627.95,337.34C627.94,331 627.18,324.66 626.84,318.31C626.6,313.89 626.59,309.45 626.28,305.03C626.04,301.6 625.51,298.2 625.12,294.78C624.88,292.72 623.74,291.98 621.78,292.51C618.12,293.49 614.24,294.03 610.92,295.69C609.2,296.55 608.08,299.28 607.4,301.4C606.22,305.07 605.59,308.92 604.74,312.7C604.07,315.64 603.21,318.56 602.78,321.54C601.82,328.23 592.1,332.66 586.63,328.78C580.39,324.35 580.34,324.33 583.34,314.78C584.62,310.7 586.21,306.72 587.59,302.66C588.21,300.83 588.86,298.97 589.14,297.07C590.39,288.35 592.64,279.73 591.81,270.79C591.62,268.76 591.32,266.95 588.88,266.91C586.04,266.86 583.46,265.34 583.35,263.02C583.24,260.69 584.74,257.88 586.35,255.96C593.84,246.98 601.63,238.25 609.26,229.38C611.19,227.14 612.72,224.53 614.8,222.46C619.16,218.12 620.77,212.98 620.27,206.98C620.16,205.64 620.21,204.25 620.4,202.92C621.17,197.72 624.78,195.54 629.75,197.11C631.62,197.7 633.53,198.27 635.47,198.57C644.08,199.92 649.57,205.36 653.36,212.63C656.27,218.2 654.49,223.37 648.96,227.34C638.99,234.5 629,241.64 619.02,248.78C616.33,250.71 613.63,252.63 610.9,254.52C607.73,256.72 606.08,259.67 606.25,263.58C606.37,266.39 606.37,269.2 606.6,272C606.85,275.06 608.87,276.11 611.63,274.96C616.24,273.05 621.11,271.65 625.47,269.3C629.41,267.17 632.64,263.76 636.49,261.43C642.95,257.51 649.64,253.97 656.27,250.34C657.08,249.9 658.26,249.55 659.07,249.8C663.02,251 667.13,251.97 670.75,253.85C677.01,257.11 680.12,263.85 671.47,269.38C665.79,273 659.53,275.72 653.54,278.86C650.56,280.42 648.14,282.47 648.18,286.17C648.39,304.42 648.44,322.67 649.01,340.91C649.29,349.83 650.48,358.72 651.5,367.6C651.99,371.86 653.79,376.07 653.69,380.27C653.55,386.57 652,392.82 651.53,399.13C651.05,405.59 648.61,411.92 650.72,418.6C651.37,420.66 650.33,423.24 650.14,425.58C649.87,428.98 650.18,431.98 651.78,435.38C653.12,438.21 651.46,442.48 650.98,446.09C650.95,446.29 649.54,446.31 648.95,446.39C648.29,450.83 647.64,455.23 646.94,460C645.18,459.41 643.89,458.98 641.88,458.3C642.48,452.36 643.1,446.3 643.72,440.25C646.65,437.11 645.83,433.26 645.59,429.51C644.5,431.2 644.07,433.03 643.9,434.89C643.73,436.69 643.83,438.52 643.81,440.34L643.79,440.35ZM645.68,425.65C646.27,425.66 646.86,425.67 647.45,425.69C647.18,417.11 646.91,408.53 646.65,399.95L645.68,399.99L645.68,425.65Z" style="fill:rgb(44,21,17);fill-rule:nonzero;"/>
        <path d="M561.77,269.48C566,269.89 569.45,270.03 572.82,270.61C574.8,270.95 577.29,271.45 578.47,272.81C582.71,277.68 580.93,281.32 576.33,282.84C570.24,284.86 564.24,287.43 558.66,290.56C555.91,292.1 553.79,295.24 552.19,298.1C551.54,299.27 552.7,302.98 553.61,303.21C556.3,303.88 559.5,304.05 562.09,303.18C565.63,301.99 568.92,300.48 572.78,301.28C576.51,302.06 579.34,306.04 578.2,309.5C577.84,310.59 576.75,311.66 575.71,312.25C569.56,315.78 563.2,318.98 557.19,322.75C555.65,323.72 554.62,326.23 554.25,328.2C552.79,336.05 554.26,343.8 555.29,351.62C556.05,357.44 556.54,363.65 555.3,369.28C554.38,373.5 550.98,377.51 547.83,380.79C545.43,383.29 538.43,380.18 535.62,376.02C533.76,373.28 531.88,370.56 530.1,367.77C527.89,364.32 525.22,361.61 520.74,362.97C516.61,364.22 516.54,368.25 515.49,371.56C515.13,372.7 514.84,373.92 514.23,374.93C512.68,377.46 509.22,377.47 508.27,374.72C507.44,372.31 506.99,369.33 507.64,366.95C509.7,359.27 507.25,359.48 501.64,357.56C499.57,356.85 497.37,356.5 495.38,355.64C493.32,354.76 491.71,353.49 491.84,350.66C491.97,347.75 494.04,346.98 495.97,346.06C497.95,345.11 500.17,344.67 502.15,343.72C516.39,336.89 527.51,326.12 537.76,314.49C539.67,312.33 539.38,308.23 540.11,305.02C539.58,304.65 539.05,304.29 538.52,303.92C536.09,305.63 533.61,307.28 531.25,309.08C527.93,311.61 524.94,314.66 521.38,316.74C516.64,319.51 511.6,321.84 506.48,323.85C499.62,326.53 493.64,324.14 488.52,319.41C484.82,315.99 486.17,311.09 491.02,309.67C495.89,308.24 500.8,306.91 505.61,305.31C507.19,304.78 508.57,303.6 509.97,302.62C516.19,298.24 522.42,293.87 528.55,289.37C529.71,288.52 530.21,286.8 531.36,285.93C534.88,283.24 538.85,281.09 542.13,278.14C546.17,274.5 550.79,270.89 551.1,264.82C551.18,263.28 549.81,261.31 548.53,260.24C548.04,259.83 545.49,261.02 544.6,262.08C538.85,268.93 533.5,276.11 527.62,282.84C524.21,286.74 522.09,286.41 520.4,281.62C518.79,277.08 518.44,272.11 517.33,267.37C516.98,265.88 516.25,263.6 515.22,263.3C509.17,261.51 506.06,256.06 501.3,252.71C499.5,251.44 497.92,249.83 496.39,248.24C495.78,247.6 495.14,246.49 495.3,245.76C495.43,245.13 496.61,244.47 497.43,244.28C499.7,243.76 502.06,243.05 504.34,243.2C512.04,243.71 518.24,240.11 524.74,236.77C535.68,231.14 546.79,225.83 558,220.75C564.36,217.87 571.47,219.77 575.95,224.74C579.35,228.51 578.42,232.13 573.65,233.68C571.68,234.32 569.48,234.55 567.77,235.6C566.12,236.62 564.62,238.29 563.83,240.03C563.57,240.59 565.62,242.44 566.86,243.39C568.21,244.42 569.83,245.12 571.35,245.92C575.74,248.22 576.85,251.76 573.79,255.78C570.97,259.48 567.49,262.66 564.34,266.11C563.57,266.95 562.96,267.93 561.78,269.5L561.77,269.48ZM537.9,341.18C538.1,341.14 538.31,341.1 538.51,341.06C537.94,339.6 537.65,337.92 536.7,336.77C536.06,336 533.82,335.36 533.45,335.76C529.51,339.92 525.51,344.09 522.14,348.71C520.17,351.41 521.57,353.53 524.86,354.87C526.89,355.7 528.88,356.73 530.71,357.93C534.1,360.15 536.69,359.21 537.11,355.13C537.59,350.5 537.65,345.83 537.89,341.18L537.9,341.18ZM553.47,244.92C550.56,246.4 547.9,247.78 545.22,249.12C539.23,252.12 533.18,255.01 527.28,258.17C526.27,258.71 525.21,260.45 525.34,261.49C525.5,262.71 526.74,264.45 527.84,264.75C529.5,265.19 531.73,265.11 533.21,264.31C539.33,261.02 545.4,257.58 551.2,253.77C554.63,251.52 555.23,248.27 553.47,244.92Z" style="fill:rgb(44,21,17);fill-rule:nonzero;"/>
        <path d="M752.46,320.87C752.46,332.32 752.5,343.78 752.43,355.23C752.42,357.56 751.92,359.88 751.8,362.21C751.66,364.88 751.68,367.57 751.66,370.25C751.66,371.22 752.1,372.49 751.65,373.12C749.03,376.73 746.64,380.7 743.32,383.54C740.4,386.03 731.9,381.49 729.57,376.89C725.03,367.95 720.45,359.04 715.88,350.11C715.77,349.89 715.75,349.61 715.61,349.43C709.75,342.16 709.12,342.56 703.5,348.15C701.17,350.47 698.06,352.21 695,353.49C693.76,354.01 691.68,352.69 690.03,352.07C683.16,349.49 680.97,343.64 680.4,337.17C680.07,333.42 680.69,329.52 681.38,325.79C681.69,324.14 683.06,322.54 684.29,321.23C686.76,318.58 689.14,315.66 692.12,313.71C698.17,309.73 702.87,304.19 709.52,300.71C716.65,296.98 722.65,291.05 728.99,285.89C730.09,284.99 730.87,283.13 730.97,281.66C731.52,273.93 731.94,266.18 732.13,258.43C732.22,254.74 730.65,253.8 727.67,255.81C724.76,257.77 722.29,260.38 719.66,262.76C711.2,270.41 706.4,270.54 697.88,262.95C692.64,258.28 687.53,253.45 682.61,248.46C681.04,246.87 680.14,244.56 679.16,242.47C678.91,241.93 679.33,240.86 679.75,240.25C684.01,234.18 689.94,230.94 696.94,228.44C704.59,225.7 711.67,221.3 718.89,217.42C722.35,215.56 725.57,213.25 728.88,211.13C733.97,207.86 736.52,203.32 736.12,197.13C735.62,189.41 736.09,181.54 734.69,174C733.57,167.99 730.07,162.46 728.08,156.56C727.42,154.6 727.62,151.92 728.48,150.06C729.01,148.92 731.69,148 733.16,148.27C735.45,148.69 737.61,150.1 739.7,151.3C745.27,154.53 750.84,157.78 756.26,161.26C757.4,161.99 758.6,163.72 758.6,164.99C758.56,173.46 758.32,181.93 757.9,190.38C757.72,193.96 759.14,196.05 762.68,196.47C767.38,197.03 772.18,197.3 776.72,198.51C778.75,199.05 780.53,201.37 781.89,203.27C783.47,205.47 782.08,211.7 780.67,214.07C776.48,221.07 768.85,223.5 762.7,227.79C756.44,232.16 753.37,237.46 753.47,245.07C753.57,253.08 752.91,261.1 753.1,269.11C753.17,272.32 754.4,275.58 755.57,278.64C755.82,279.3 758.33,279.74 759.43,279.33C764.44,277.43 766.07,272.76 767.83,268.27C768.77,265.88 769.78,263.51 770.75,261.13C772.32,257.28 773.64,253.32 775.51,249.62C777.43,245.82 779.89,242.3 782.08,238.63C782.95,237.18 783.74,235.68 784.53,234.18C788.23,227.15 791.73,220.02 795.66,213.12C800.62,204.41 806.09,195.95 809.34,186.42C812.56,176.99 815.48,167.45 818.23,157.87C819.23,154.37 819.64,150.63 819.81,146.97C820.12,140.5 822.96,138.12 828.9,138.33C835.29,138.55 840.15,140.34 843.76,145.51C845.53,148.04 849.16,148.85 849.6,152.74C850.26,158.52 849.98,164.04 847.42,169.35C846.08,172.12 844.83,174.93 843.59,177.75C842.39,180.49 842.59,183.1 844.84,185.23C855.43,195.27 864.34,207.02 876.42,215.54C880.09,218.13 883.06,221.71 887.71,222.75C888.17,222.85 888.77,223.11 888.97,223.47C891.95,229 898.19,230.69 902.37,234.85C904.46,236.93 907.85,237.69 910.01,239.74C916.74,246.12 923.3,252.7 929.59,259.5C930.72,260.73 932.29,263.08 930.23,265.49C928.37,267.67 926.56,267.74 924.02,266.94C917.43,264.84 910.69,266.27 904,266.52C898.31,266.74 892.59,266.98 889.4,260.74C889.04,260.03 888.09,259.03 887.55,259.1C880.94,260 879.87,254.17 878.58,250.51C875.08,240.5 868.12,233.57 860.55,226.85C855.67,222.51 851.17,217.75 846.36,213.32C843.51,210.7 840.53,208.19 837.36,205.98C834.73,204.16 832.4,205.92 831.04,207.98C828.5,211.84 826.64,216.15 824.14,220.04C817.74,230.02 811.14,239.87 804.62,249.78C801.88,253.95 799.18,258.15 796.4,262.3C792.42,268.25 788.62,274.36 784.29,280.05C780.51,285.02 776.16,289.56 771.95,294.18C769.14,297.26 765.93,298.89 761.89,296.03C761.02,295.41 759.84,295.19 758.78,294.88C754.89,293.72 753.37,294.67 753.3,298.71C753.17,306.11 753.26,313.51 753.26,320.91L752.47,320.91L752.46,320.87ZM731.98,333.99L732.21,333.99C732.02,330.81 732,327.61 731.56,324.46C731.42,323.48 730.27,322.06 729.4,321.92C728.33,321.74 726.8,322.41 725.95,323.21C724.46,324.63 723.28,326.41 722.05,328.09C715.99,336.36 716.48,339.22 724.92,345.06C728.64,347.64 731.62,346.28 731.95,341.72C732.14,339.15 731.98,336.56 731.98,333.99Z" style="fill:rgb(44,21,17);fill-rule:nonzero;"/>
        <path d="M1061.44,152.16C1064.3,143.2 1063.23,133.48 1062.42,124.04C1061.97,118.81 1060.18,113.1 1056.37,108.65C1053.01,104.73 1052.41,100 1052.83,95.08C1053.26,90.04 1056.71,87.87 1060.6,90.91C1067.25,96.12 1073.56,101.86 1079.41,107.95C1081.13,109.74 1080.76,113.5 1081.5,116.31C1082.02,118.32 1082.75,120.28 1083.47,122.24C1083.67,122.8 1084.19,123.23 1084.47,123.77C1087.01,128.7 1088.2,129.1 1093.69,128.2C1101.33,126.95 1109.02,126.04 1116.69,124.94C1117.76,124.79 1119.02,124.67 1119.8,124.04C1126.43,118.73 1132.49,121.2 1138.4,125.32C1141.82,127.71 1145.12,130.27 1148.47,132.76C1156.56,138.78 1156.48,150.33 1148.49,156.54C1144.61,159.55 1141.21,163.16 1137.38,166.25C1132.72,170 1127.82,173.46 1123.06,177.1C1119.75,179.63 1116.47,182.21 1113.23,184.83C1106.61,190.18 1099.26,194.02 1091.03,196.34C1084.96,198.05 1080.17,200.99 1079.69,208.52C1079.47,211.92 1077.27,215.2 1075.88,218.77C1082.33,215.45 1089.04,211.88 1095.86,208.52C1106.25,203.39 1116.79,198.55 1127.12,193.31C1132.46,190.6 1137.28,186.8 1142.73,184.39C1146.58,182.69 1149.05,180.44 1150.89,176.78C1152.61,173.36 1153.41,173.75 1155.87,176.78C1158.34,179.81 1161.22,182.59 1164.27,185.04C1170.63,190.14 1167.72,197.63 1160.12,199.23C1150,201.35 1140.2,204.27 1130.6,208.02C1125.4,210.05 1120.15,211.92 1114.91,213.85C1114.23,214.1 1113.47,214.48 1112.8,214.4C1106.12,213.54 1101.17,217.46 1095.88,220.41C1085.69,226.09 1076.67,233.26 1068.75,241.81C1067.94,242.69 1067.26,243.69 1065.8,245.55C1070.96,244.85 1075.14,244.52 1079.21,243.66C1084.19,242.6 1089.1,241.16 1094,239.71C1094.9,239.44 1095.72,238.47 1096.28,237.63C1099.4,233 1103.62,231.92 1107.3,235.82C1111.62,240.41 1116.75,242.04 1122.66,242.7C1126.31,243.11 1128.45,245.84 1129.94,248.92C1133.57,256.42 1135.04,264.44 1134.17,272.65C1133.07,282.95 1134.7,292.67 1137.97,302.42C1139.05,305.64 1138.94,309.96 1137.67,313.09C1135.93,317.39 1135.68,321.44 1136.69,325.63C1137.72,329.93 1137.49,333.88 1135.53,337.84C1135.13,338.64 1135.1,340.21 1135.61,340.76C1138.71,344.12 1139.61,347.73 1137.66,351.97C1137.44,352.46 1137.63,353.13 1137.63,354.07C1143.17,353.29 1148.6,353.01 1153.78,351.71C1167.3,348.32 1180.88,345.02 1194.06,340.57C1199.4,338.77 1204.01,334.36 1208.49,330.6C1212.81,326.96 1216.46,322.52 1220.56,318.6C1226.57,312.84 1232.71,307.22 1238.83,301.57C1239.34,301.1 1240.08,300.6 1240.72,300.59C1246.7,300.47 1248.15,299.48 1250.42,293.7C1250.69,293.02 1250.66,291.9 1251.11,291.68C1258.38,288.09 1261.07,280.11 1267.08,275.18C1271.59,271.48 1275.79,266.73 1278.43,261.58C1282.04,254.56 1288.66,250.87 1293.07,244.93C1293.48,245.04 1293.89,245.15 1294.31,245.26C1294.21,247.04 1294.68,249.14 1293.88,250.52C1292.03,253.74 1289.48,256.56 1287.4,259.67C1286.66,260.77 1286.4,262.22 1286.12,263.55C1286.08,263.73 1287.6,264.58 1287.8,264.41C1288.72,263.64 1289.39,262.59 1290.21,261.69C1292.61,259.06 1294.98,256.42 1297.46,253.86C1300.2,251.03 1303.04,248.29 1305.82,245.5C1306.42,244.89 1306.97,244.23 1307.54,243.59C1308.48,242.53 1309.43,241.46 1310.37,240.4C1311.24,241.5 1312.12,242.6 1313.65,244.53C1316.67,241.13 1319.94,237.5 1323.14,233.82C1323.52,233.39 1323.43,232.49 1323.84,232.16C1325.13,231.13 1326.5,230.18 1327.96,229.42C1328.27,229.26 1329.61,230.25 1329.57,230.37C1329,231.88 1328.46,233.47 1327.54,234.78C1323.8,240.09 1319.94,245.31 1316.09,250.54C1315.44,251.43 1314.5,252.11 1313.87,253.01C1310.99,257.14 1308.64,261.75 1305.23,265.37C1300.91,269.96 1298.11,275.38 1294.91,280.61C1292.6,284.39 1290.13,288.06 1287.72,291.78C1287.39,292.29 1287.09,292.84 1286.67,293.27C1281.33,298.69 1277.28,304.94 1274.41,311.98C1274.1,312.73 1273.27,313.26 1272.78,313.96C1269.82,318.11 1267.07,322.44 1263.88,326.41C1260.2,331 1256.21,335.35 1252.22,339.67C1250.39,341.65 1248.13,343.24 1246.25,345.17C1245.47,345.97 1245.14,347.22 1244.61,348.26C1244.92,348.51 1245.22,348.76 1245.53,349C1249.04,346.53 1252.5,343.98 1256.09,341.64C1257.27,340.88 1258.81,340.68 1260.44,340.72C1261.72,339.56 1261.39,335.88 1265.58,337.99C1264.79,339.02 1264.37,339.98 1263.64,340.46C1259.92,342.91 1259.03,347.11 1257.05,350.65C1255.59,353.27 1254.05,355.86 1252.35,358.33C1250.16,361.51 1247.69,364.5 1245.48,367.66C1242.53,371.88 1239.93,376.37 1236.77,380.41C1234.36,383.49 1231.52,386.34 1228.48,388.82C1223.09,393.24 1217.57,397.56 1211.79,401.44C1206.41,405.05 1200.9,408.74 1194.93,411.11C1188.51,413.65 1182.57,418.5 1174.76,416.66C1172.72,416.18 1170.34,417.18 1168.23,417.15C1163.8,416.93 1159.36,416.85 1154.95,416.43C1152.73,416.22 1150.59,415.19 1148.37,414.96C1146.53,414.77 1144.62,415.14 1142.76,415.4C1141,415.65 1138.89,416.9 1137.57,416.3C1131.92,413.72 1126.65,415.72 1121.35,417.04C1111.11,419.6 1100.91,420.47 1090.67,417.22C1087.85,416.32 1085,415.43 1082.33,414.19C1070.78,408.86 1058.32,406.99 1046.08,404.15C1039.32,402.58 1032.9,399.36 1026.47,396.56C1010.83,389.77 995.04,383.69 978.03,380.91C968.7,379.38 959.57,376.48 950.49,373.73C942.11,371.19 933.76,371.42 925.25,372.44C922.35,372.79 919.36,372.59 916.43,372.4C915.43,372.33 914.06,371.77 913.56,370.99C910.79,366.65 907.96,362.31 905.72,357.7C904.11,354.39 906.1,352.45 909.64,352.18C913.98,351.86 918.33,351.08 922.55,350.03C926.71,349 930.81,347.59 934.75,345.92C936.56,345.16 938.07,343.52 939.48,342.06C941.65,339.82 943.3,336.96 945.75,335.13C949.05,332.66 950.75,329.04 950.58,325.74C950.47,323.61 946.8,321.49 944.45,319.72C942.81,318.48 940.67,317.94 938.84,316.93C935.03,314.82 934.54,311.74 937.14,308.23C939.1,305.59 941.11,302.91 942.59,299.99C944.33,296.56 944.02,293.06 942.36,289.38C939.41,282.83 935.29,276.39 938.3,268.32C938.91,268.46 939.78,268.47 940.42,268.85C944.45,271.21 948.62,273.4 952.39,276.13C960.9,282.3 960.09,292.93 951,297.81C949.9,298.4 948.25,299.69 948.37,300.4C948.57,301.57 949.82,302.85 950.95,303.52C956.16,306.6 960.69,310.69 967.11,311.91C972.01,312.84 973.97,322.24 970.57,326.53C968.85,328.7 966.46,330.35 964.37,332.23C961.26,335.01 957.96,337.61 955.08,340.61C952.86,342.92 953.66,345.33 956.73,346.17C961.85,347.57 966.97,349.04 972.18,350C989.29,353.15 1006.43,356.15 1023.58,359.08C1027.58,359.76 1031.68,359.81 1035.71,360.39C1040.69,361.11 1045.68,361.86 1050.57,363.02C1053.17,363.64 1054.51,363.52 1055.73,360.78C1059.42,352.47 1063.53,344.35 1067.28,336.07C1067.7,335.14 1067.2,333.36 1066.51,332.46C1064.22,329.47 1061.64,326.71 1059.2,323.89C1058.03,327.7 1056.75,331.76 1055.54,335.84C1054.2,340.35 1046.02,343.13 1043,339.56C1040.08,336.11 1038.12,331.73 1036.29,327.52C1034.32,322.96 1033.22,318.18 1036.03,313.33C1036.52,312.48 1035.92,310.98 1035.78,309.78C1035.49,307.4 1034.7,304.97 1034.93,302.65C1035.63,295.73 1035.99,288.64 1037.86,282C1039.92,274.69 1042.23,266.77 1046.85,261.07C1050.45,256.62 1053.77,251.87 1057.46,247.45C1061.4,242.73 1064.92,237.62 1069.19,233.22C1074.45,227.8 1080.29,222.94 1086.52,217.26C1084.75,217.68 1083.4,217.67 1082.45,218.27C1067.94,227.39 1053.33,236.37 1039.05,245.84C1029.11,252.43 1019.6,259.65 1010,266.74C1008.49,267.85 1007.63,269.8 1006.34,271.24C1004.03,273.83 1001.78,276.52 999.2,278.82C997.04,280.75 994.57,282.47 991.98,283.74C990.48,284.48 988.37,284.58 986.71,284.2C983.81,283.54 980.65,283.16 978.83,280.09C978.27,279.15 976.95,278.31 975.85,278.12C971.45,277.34 968.87,274.2 966.16,271.16C965.35,270.25 964.58,269.29 963.82,268.34C963.13,267.48 962.48,266.6 961.81,265.72C962.95,265.43 964.06,265.02 965.22,264.86C970.17,264.2 975.28,264.17 980.03,262.85C984.58,261.59 988.59,258.41 993.14,257.17C997.43,256.01 1000.69,253.36 1004.49,251.61C1009.06,249.5 1014.19,248.6 1019.08,247.16C1020.24,246.82 1021.49,246.63 1022.53,246.06C1034.9,239.22 1047.24,232.33 1059.5,225.49C1059.27,224.64 1058.49,223.37 1058.7,222.31C1059.44,218.67 1057.57,215.99 1055.53,213.59C1053.22,210.88 1050.42,212.03 1047.92,213.71C1045.68,215.22 1043.56,216.92 1041.27,218.36C1033.37,223.33 1022.69,222.83 1014.86,217.33C1013.4,216.31 1012.15,214.75 1011.28,213.18C1009.97,210.83 1011.16,209.07 1013.88,208.83C1018.18,208.46 1020.05,206.56 1019.98,202.08C1019.86,194.44 1017.04,187.67 1012.66,181.53C1010.52,178.52 1008.23,175.61 1005.86,172.77C1001.77,167.86 1002.35,164.42 1007.97,161.3C1011.8,159.17 1013.08,159.49 1014.77,163.52C1017.34,169.65 1021.2,174.28 1027.44,177.17C1033.43,179.94 1035.57,185.92 1037.54,191.75C1038.24,193.83 1038.79,195.95 1039.63,198.76C1043.72,197.98 1047.86,197.53 1051.79,196.36C1055.89,195.13 1057.57,191.33 1058.27,187.58C1058.94,183.99 1058.79,180.2 1058.64,176.52C1058.45,172.16 1056.48,171.32 1052.53,173.5C1051.06,174.31 1049.5,175.21 1047.89,175.48C1043.95,176.13 1040.21,175.83 1038.24,171.47C1038,170.94 1037.46,170.5 1036.98,170.14C1035.33,168.9 1032.15,168.38 1033.54,165.46C1034.91,162.58 1035.9,158.66 1040.63,159.37C1041.59,159.51 1042.63,159.18 1043.58,159.34C1049.65,160.38 1054.35,158.16 1058.22,153.58C1058.77,152.93 1059.94,152.79 1061.53,152.12L1061.44,152.16ZM1082.44,276.65C1085.48,275.44 1087.94,274.43 1090.41,273.47C1093.62,272.22 1096.2,273.42 1098.38,275.74C1100.57,278.07 1100.52,280.42 1098.52,282.99C1093.88,288.95 1090.89,295.96 1084.84,301.15C1080.97,304.47 1079.22,310.26 1076.55,314.9C1078.29,317.47 1079.91,317.71 1082.12,315.33C1084.62,312.63 1087.81,310.54 1090.14,307.71C1094.38,302.58 1099.29,303.08 1104.76,304.92C1106.42,305.48 1108.38,305.18 1109.3,305.23C1108.25,296.31 1107.28,288.04 1106.32,279.78C1105.45,272.33 1105.06,264.78 1103.61,257.44C1101.98,249.16 1101.01,248.96 1093.18,252.55C1087.46,255.17 1081.53,256.18 1075.34,254.99C1070.33,254.02 1065.38,252.77 1060.51,251.67C1054.48,255.3 1054.46,262.13 1052.53,267.94C1051.55,270.9 1050.44,274.6 1051.39,277.24C1053.03,281.79 1052.07,285.94 1051.72,290.3C1051.6,291.82 1051.84,293.41 1052.13,294.93C1052.87,298.9 1054.32,302.84 1054.32,306.79C1054.32,309.67 1054.72,311.51 1057.4,312.79C1062.89,308.43 1061.13,315.96 1064.28,316.75C1064.97,315.61 1065.96,314.29 1066.65,312.83C1069.25,307.31 1071.56,301.65 1074.35,296.23C1076.06,292.91 1078.44,289.94 1081.17,285.86C1078.25,285.86 1076.36,286.03 1074.51,285.81C1072.91,285.62 1070.93,285.47 1069.87,284.49C1067.18,282.01 1068.45,272.34 1071.33,270.12C1073.63,268.34 1075.79,266.37 1077.91,264.37C1079.75,262.63 1081.44,260.72 1083.22,258.85C1086.24,262.57 1086.18,263.97 1082.46,276.64L1082.44,276.65ZM1094.98,333.78C1092.42,335.32 1089.74,336.39 1087.79,338.23C1084.44,341.4 1081.61,345.12 1078.46,348.5C1074.38,352.88 1070.15,357.11 1066.12,361.52C1065.33,362.38 1064.7,363.84 1064.83,364.92C1064.9,365.5 1066.72,366.29 1067.75,366.29C1072,366.26 1076.3,365.44 1080.49,365.85C1093.78,367.15 1106.47,364.11 1119.18,361.08C1120.67,360.72 1122.03,359.8 1123.46,359.14C1122.82,359.42 1122.19,359.69 1121.55,359.97C1120.54,358.07 1119.66,356.08 1118.48,354.3C1116.99,352.07 1115.5,349.74 1113.56,347.92C1107.79,342.52 1103.52,335.12 1094.99,333.77L1094.98,333.78ZM1085.41,173.66C1085.89,173.94 1086.38,174.22 1086.86,174.5C1091.54,170.43 1096.59,166.7 1100.79,162.18C1103.73,159.01 1105.76,154.89 1107.75,150.97C1109.41,147.69 1107.92,145.4 1104.4,145.84C1091.98,147.38 1091.07,145.58 1087.96,158.64C1087.79,159.36 1087.51,160.06 1087.4,160.79C1086.72,165.08 1086.08,169.37 1085.42,173.67L1085.41,173.66ZM1112.94,310.62C1111.99,311.93 1111.24,313.18 1110.29,314.24C1106.88,318.08 1103.49,321.94 1099.92,325.63C1097.87,327.75 1098.7,329.76 1100.7,330.25C1105.71,331.47 1110.27,333.33 1114.42,336.41C1115.04,336.87 1116.58,336.45 1117.47,335.99C1117.89,335.77 1117.96,334.47 1117.85,333.71C1117.53,331.61 1116.81,329.56 1116.62,327.46C1116.12,321.73 1116.49,315.85 1112.94,310.61L1112.94,310.62ZM1241.68,362.61C1241.37,362.41 1241.06,362.21 1240.76,362.01C1233.76,368.11 1226.76,374.21 1219.76,380.31C1221.12,381.06 1222.15,381.39 1222.75,381.01C1225.6,379.21 1228.4,377.3 1231.1,375.27C1233.14,373.73 1234.83,371.67 1236.98,370.35C1240.08,368.45 1240.7,365.5 1241.68,362.62L1241.68,362.61Z" style="fill:rgb(44,21,17);fill-rule:nonzero;"/>
        <g>
            <path d="M708.1,418.88L713.52,418.88C717.04,418.88 719.61,420.15 719.61,423.78C719.61,427.41 717.04,428.91 713.52,428.91L710.35,428.91L710.35,436.24L708.1,436.24L708.1,418.88ZM713.2,427.11C715.9,427.11 717.38,426 717.38,423.78C717.38,421.56 715.9,420.68 713.2,420.68L710.34,420.68L710.34,427.11L713.2,427.11ZM714.82,427.14L720.11,436.24L717.6,436.24L713.08,428.3L714.83,427.14L714.82,427.14Z" style="fill:rgb(44,21,17);fill-rule:nonzero;"/>
            <path d="M730.87,418.88L741.62,418.88L741.62,420.76L733.1,420.76L733.1,426.18L740.3,426.18L740.3,428.06L733.1,428.06L733.1,434.36L741.88,434.36L741.88,436.24L730.87,436.24L730.87,418.88Z" style="fill:rgb(44,21,17);fill-rule:nonzero;"/>
            <path d="M756.86,426.79C756.04,426.79 755.35,426.13 755.35,425.31C755.35,424.49 756.04,423.8 756.86,423.8C757.68,423.8 758.37,424.49 758.37,425.31C758.37,426.13 757.68,426.79 756.86,426.79ZM756.86,436.63C756.04,436.63 755.35,435.97 755.35,435.15C755.35,434.33 756.04,433.64 756.86,433.64C757.68,433.64 758.37,434.33 758.37,435.15C758.37,435.97 757.68,436.63 756.86,436.63Z" style="fill:rgb(44,21,17);fill-rule:nonzero;"/>
            <path d="M807.7,418.88L809.95,418.88L809.95,426.13L817.15,426.13L817.15,418.88L819.4,418.88L819.4,436.24L817.15,436.24L817.15,428.09L809.95,428.09L809.95,436.24L807.7,436.24L807.7,418.88Z" style="fill:rgb(44,21,17);fill-rule:nonzero;"/>
            <path d="M831,418.88L841.75,418.88L841.75,420.76L833.23,420.76L833.23,426.18L840.43,426.18L840.43,428.06L833.23,428.06L833.23,434.36L842.01,434.36L842.01,436.24L831,436.24L831,418.88Z" style="fill:rgb(44,21,17);fill-rule:nonzero;"/>
            <path d="M852.99,418.88L858.42,418.88C861.94,418.88 864.5,420.15 864.5,423.78C864.5,427.41 861.93,428.91 858.42,428.91L855.24,428.91L855.24,436.24L852.99,436.24L852.99,418.88ZM858.11,427.11C860.81,427.11 862.29,426 862.29,423.78C862.29,421.56 860.81,420.68 858.11,420.68L855.25,420.68L855.25,427.11L858.11,427.11ZM859.72,427.14L865.01,436.24L862.5,436.24L857.98,428.3L859.73,427.14L859.72,427.14Z" style="fill:rgb(44,21,17);fill-rule:nonzero;"/>
            <path d="M875.28,434.36L879.59,434.36L879.59,420.76L875.28,420.76L875.28,418.88L886.13,418.88L886.13,420.76L881.82,420.76L881.82,434.36L886.13,434.36L886.13,436.24L875.28,436.24L875.28,434.36Z" style="fill:rgb(44,21,17);fill-rule:nonzero;"/>
            <path d="M901.99,420.76L896.24,420.76L896.24,418.88L909.95,418.88L909.95,420.76L904.21,420.76L904.21,436.24L901.99,436.24L901.99,420.76Z" style="fill:rgb(44,21,17);fill-rule:nonzero;"/>
            <path d="M924.21,418.88L926.75,418.88L932.6,436.24L930.22,436.24L927.23,426.56C926.62,424.63 926.04,422.72 925.51,420.71L925.4,420.71C924.84,422.72 924.29,424.63 923.68,426.56L920.64,436.24L918.36,436.24L924.21,418.88ZM921.46,429.17L929.42,429.17L929.42,430.97L921.46,430.97L921.46,429.17Z" style="fill:rgb(44,21,17);fill-rule:nonzero;"/>
            <path d="M941.33,427.56C941.33,421.95 944.53,418.56 949.03,418.56C951.33,418.56 952.84,419.64 953.82,420.68L952.55,422.08C951.73,421.21 950.7,420.52 949.03,420.52C945.78,420.52 943.66,423.19 943.66,427.51C943.66,431.83 945.59,434.6 948.98,434.6C950.2,434.6 951.33,434.23 951.97,433.6L951.97,429.08L948.53,429.08L948.53,427.25L954.03,427.25L954.03,434.55C952.95,435.66 951.09,436.56 948.84,436.56C944.47,436.56 941.33,433.23 941.33,427.56Z" style="fill:rgb(44,21,17);fill-rule:nonzero;"/>
            <path d="M965.32,418.88L976.07,418.88L976.07,420.76L967.55,420.76L967.55,426.18L974.75,426.18L974.75,428.06L967.55,428.06L967.55,434.36L976.33,434.36L976.33,436.24L965.32,436.24L965.32,418.88Z" style="fill:rgb(44,21,17);fill-rule:nonzero;"/>
        </g>
    </g>
    <g id="图层1" transform="matrix(0.245652,0,0,0.245652,588.445,-6.53844)">
        <g transform="matrix(4.0708,0,0,4.0708,-2395.44,26.6167)">
            <path d="M734.698,27.601C736.368,29.596 738.903,32.85 740.39,34.988C740.665,35.383 740.729,35.77 740.62,36.213C740.557,36.473 740.374,36.627 740.122,36.695C740.043,36.715 739.961,36.724 739.88,36.729C739.69,36.74 739.501,36.749 739.311,36.749C736.497,36.779 733.682,36.819 730.868,36.831C721.393,36.867 711.918,36.847 702.445,36.937C694,37.016 685.556,37.009 677.11,37.064C676.894,37.064 676.677,37.057 676.46,37.068C675.332,37.12 674.334,36.734 673.418,36.121C673.016,35.852 672.644,35.526 672.292,35.193C671.292,34.253 670.728,33.074 670.455,31.735C670.328,31.118 670.285,30.496 670.337,29.876C670.5,27.929 671.26,26.272 672.786,25.007C673.465,24.444 674.269,24.123 675.113,23.901C675.266,23.861 675.434,23.865 675.596,23.863C676.571,23.852 677.544,23.84 678.519,23.836C680.792,23.822 683.067,23.849 685.34,23.793C688.831,23.705 692.323,23.723 695.812,23.691C698.085,23.671 700.36,23.664 702.633,23.648C702.931,23.648 703.224,23.626 703.52,23.585C704.892,23.399 705.847,22.628 706.524,21.47C706.998,20.661 707.219,19.781 707.235,18.836C707.253,17.779 707.045,16.791 706.533,15.868C706.348,15.536 706.133,15.224 705.871,14.948C705.242,14.281 704.454,13.948 703.556,13.948C699.929,13.944 696.3,13.926 692.675,13.987C687.371,14.075 682.065,14.046 676.761,14.068C669.967,14.098 663.171,14.109 656.378,14.127C656.215,14.127 656.055,14.111 655.892,14.102L655.886,14.102C655.786,14.134 655.689,14.181 655.588,14.188C655.317,14.202 655.046,14.197 654.775,14.199L636.906,14.245C636.175,14.245 635.444,14.245 634.713,14.254C634.164,14.263 633.792,13.951 633.498,13.555C633.216,13.175 633.264,12.639 633.555,12.266C633.706,12.074 633.887,11.918 634.103,11.791C636.274,10.515 638.48,9.305 640.752,8.222C644.589,6.39 648.546,4.871 652.626,3.679C654.649,3.088 656.689,2.573 658.756,2.159C659.921,1.926 661.086,1.698 662.259,1.514C663.433,1.331 664.609,1.162 665.789,1.026C667.051,0.881 668.317,0.782 669.583,0.682C671.238,0.549 672.885,0.531 674.535,0.531C676.187,0.531 677.837,0.574 679.489,0.598C680.453,0.745 681.433,0.7 682.399,0.843C682.985,0.929 683.581,0.949 684.173,1.021C686.247,1.279 686.836,1.343 689.54,1.824C693.404,2.514 697.18,3.529 700.89,4.798C703.475,5.682 706.005,6.707 708.485,7.858C712.347,9.649 716.028,11.759 719.549,14.15C721.993,15.81 724.334,17.603 726.575,19.53C728.983,21.599 731.247,23.816 733.402,26.143C733.845,26.62 734.271,27.111 734.698,27.601C734.698,27.601 734.263,27.016 734.698,27.601Z" style="fill:rgb(44,21,17);"/>
        </g>
        <g transform="matrix(4.0708,0,0,4.0708,-2395.44,26.6167)">
            <path d="M733.63,44.172C734.357,44.172 735.084,44.152 735.811,44.176C738.652,44.269 741.496,44.217 744.338,44.249C745.295,44.26 745.216,44.21 745.615,45.058C747.522,49.109 749.091,53.288 750.298,57.599C750.838,59.528 751.31,61.475 751.686,63.445C751.93,64.72 752.163,65.998 752.35,67.285C752.54,68.599 752.707,69.913 752.838,71.234C753.016,73.016 753.115,74.8 753.176,76.589C753.21,77.566 753.262,78.541 753.237,79.515C753.201,80.979 753.16,82.444 753.075,83.905C753.005,85.122 752.892,86.336 752.756,87.549C752.625,88.731 752.445,89.91 752.282,91.09C752.269,91.196 752.224,91.298 752.183,91.398C752.102,91.603 751.935,91.671 751.723,91.579C751.179,91.339 750.635,91.095 750.093,90.848C748.026,89.907 745.958,88.964 743.889,88.023C741.918,87.128 739.946,86.239 737.977,85.343C736.524,84.683 735.073,84.018 733.619,83.358L727.631,80.646C726.227,80.011 724.824,79.371 723.42,78.733C722.779,78.443 722.138,78.154 721.497,77.867C721.393,77.822 721.278,77.894 721.276,78.009C721.267,78.389 721.253,78.769 721.26,79.149C721.278,80.533 721.174,81.915 721.07,83.292C720.98,84.507 720.854,85.719 720.677,86.927C720.553,87.784 720.404,88.639 720.28,89.496C720.231,89.844 720.136,90.185 720.064,90.529C720.039,90.649 720.086,90.758 720.183,90.801C720.382,90.887 720.585,90.966 720.781,91.056C722.174,91.696 723.422,92.544 724.465,93.675C724.776,94.012 725.047,94.387 725.334,94.747C725.41,94.844 725.512,94.833 725.58,94.718C725.821,94.295 726.045,93.86 726.309,93.451C728.085,90.71 730.525,88.831 733.635,87.836C735.253,87.318 736.919,87.128 738.603,87.295C741.521,87.587 744.076,88.715 746.204,90.769C748.008,92.51 749.181,94.607 749.777,97.036C749.912,97.588 750.03,98.144 750.059,98.716C750.07,98.933 750.109,99.146 750.131,99.363C750.21,100.098 750.138,100.817 749.935,101.529C749.75,102.181 749.587,102.837 749.427,103.495C748.843,105.896 748.019,108.217 747.062,110.49C745.308,114.651 743.081,118.548 740.53,122.263C738.302,125.509 735.842,128.569 733.184,131.47C730.34,134.571 727.295,137.459 724.049,140.136C721.56,142.19 718.971,144.105 716.274,145.876C713.419,147.749 710.465,149.447 707.39,150.935C703.827,152.659 700.141,154.056 696.336,155.137C694.724,155.596 693.106,156.028 691.47,156.388C690.203,156.666 688.935,156.94 687.651,157.13C686.822,157.252 686.001,157.417 685.173,157.539C684.559,157.632 683.938,157.693 683.32,157.761C682.487,157.853 681.654,157.939 680.821,158.028C680.74,158.037 680.659,158.043 680.577,158.046C679.171,158.095 677.77,158.254 676.361,158.247C674.547,158.236 672.732,158.263 670.92,158.206C669.759,158.17 668.595,158.116 667.441,157.962C667.308,157.944 667.171,157.942 667.037,157.933C666.146,157.881 665.266,157.736 664.379,157.641C663.438,157.539 662.505,157.374 661.569,157.243C660.874,157.145 660.181,157.019 659.492,156.879C657.903,156.555 656.319,156.214 654.75,155.807C651.554,154.981 648.419,153.968 645.35,152.751C642.809,151.743 640.324,150.61 637.9,149.343C633.86,147.235 630.032,144.788 626.411,142.018C622.595,139.096 619.045,135.878 615.792,132.334C613.921,130.296 612.167,128.161 610.524,125.934C610.396,125.76 610.274,125.579 610.129,125.416C609.023,124.177 608.123,122.79 607.261,121.379C606.028,119.366 604.94,117.277 603.905,115.16C601.546,110.336 599.515,105.379 597.869,100.263C597.538,99.232 597.235,98.191 596.969,97.142C596.727,96.199 596.551,95.24 596.346,94.288C596.301,93.171 595.926,92.11 595.773,91.013C595.68,90.344 595.506,89.686 595.536,89C595.538,88.937 595.653,88.862 595.712,88.887C595.736,88.899 595.766,88.901 595.788,88.914C596.294,89.227 596.799,89.541 597.305,89.855C597.479,89.964 597.567,90.127 597.594,90.323C597.655,90.753 597.711,91.183 597.77,91.61C597.989,93.225 598.361,94.804 598.833,96.36C598.865,96.464 598.905,96.565 598.928,96.669C599.147,97.737 599.569,98.736 599.977,99.738C600.609,101.294 601.304,102.823 602.045,104.331C603.665,107.624 605.586,110.729 607.868,113.606C609.475,115.63 611.28,117.458 613.273,119.104C614.034,119.733 614.887,120.199 615.788,120.576C617.185,121.16 618.595,121.712 619.999,122.279C622.055,123.111 624.1,123.971 626.062,125.016C627.761,125.923 629.379,126.956 630.894,128.148C632.352,129.294 633.602,130.64 634.713,132.124C634.81,132.255 634.907,132.384 634.997,132.522C635.081,132.651 635.202,132.691 635.342,132.694C635.532,132.698 635.722,132.694 635.911,132.694C636.534,132.694 637.157,132.694 637.78,132.696C638.403,132.7 639.024,132.707 639.642,132.802C639.741,132.818 639.85,132.786 639.953,132.773C639.958,132.773 639.969,132.714 639.956,132.696C639.899,132.608 639.845,132.51 639.773,132.436C639.179,131.843 638.583,131.248 637.981,130.663C636.482,129.209 635.006,127.736 633.593,126.198C633.465,126.058 633.331,125.925 633.196,125.791C633.097,125.692 632.977,125.64 632.835,125.631C631.081,125.524 629.452,124.936 627.849,124.281C624.281,122.82 621.098,120.748 618.248,118.147C615.729,115.847 613.569,113.253 611.793,110.343C610.578,108.35 609.547,106.261 608.674,104.099C608.328,103.246 608.021,102.378 607.705,101.511C607.631,101.306 607.547,101.111 607.414,100.937C606.071,99.171 605.155,97.187 604.485,95.082C604.198,94.177 603.965,93.252 603.866,92.311C603.701,90.764 603.733,89.227 604.27,87.734C604.606,86.802 605.065,85.954 605.812,85.285C606.8,84.396 607.967,84.073 609.267,84.233C610.107,84.337 610.894,84.62 611.646,85.007C613.239,85.825 614.571,86.963 615.668,88.369C616.564,89.518 617.167,90.819 617.395,92.266C617.501,92.936 617.521,93.612 617.325,94.281C617.14,94.917 616.754,95.378 616.201,95.713C615.14,96.355 614.043,96.321 612.93,95.876C612.747,95.801 612.632,95.645 612.538,95.478C612.258,94.984 612.619,94.301 613.185,94.256C613.402,94.238 613.619,94.247 613.824,94.331C614.081,94.435 614.352,94.446 614.623,94.43C614.729,94.424 614.844,94.417 614.941,94.378C615.499,94.161 615.684,93.967 615.702,93.367C615.724,92.594 615.582,91.859 615.275,91.151C614.874,90.222 614.327,89.392 613.619,88.661C612.896,87.917 612.106,87.266 611.204,86.757C610.802,86.531 610.391,86.325 609.951,86.183C609.592,86.065 609.229,85.974 608.843,85.954C607.791,85.898 607.015,86.357 606.45,87.209C606.259,87.501 606.096,87.822 605.974,88.15C605.748,88.761 605.586,89.392 605.568,90.05L605.554,90.457C605.498,91.744 605.674,92.997 606.06,94.225C606.101,94.354 606.141,94.482 606.173,94.616C606.405,95.577 606.87,96.432 607.387,97.262C608.064,98.347 608.834,99.358 609.75,100.254C610.809,101.287 612.021,102.097 613.364,102.701C614.607,103.26 615.912,103.364 617.255,103.108C618.252,102.918 619.173,102.561 620.029,102.016C621.234,101.249 621.952,100.139 622.333,98.786C622.525,98.105 622.588,97.402 622.647,96.699C622.737,95.618 622.852,94.539 623.019,93.469C623.249,91.997 623.599,90.55 624.008,89.116C624.053,88.96 624.08,88.795 624.145,88.65C624.269,88.372 624.204,88.121 624.073,87.876C623.958,87.662 623.834,87.451 623.707,87.243C622.972,86.038 622.146,84.9 621.243,83.815C620.737,83.206 620.105,82.817 619.388,82.55C618.521,82.229 617.623,82.037 616.69,82.067C616.365,82.078 616.04,82.073 615.715,82.067C615.454,82.062 615.248,81.931 615.104,81.718C614.932,81.469 614.813,81.198 614.819,80.886C614.828,80.533 614.837,80.18 614.851,79.83C614.86,79.586 614.883,79.344 614.894,79.099C614.975,77.532 614.528,76.103 613.768,74.755C612.799,73.045 611.452,71.695 609.834,70.605C608.452,69.673 606.947,69.006 605.331,68.606C604.065,68.291 602.772,68.14 601.469,68.251C599.858,68.389 598.332,68.812 596.989,69.768C596.966,69.784 596.942,69.798 596.924,69.816C596.657,70.058 596.384,70.001 596.1,69.847C595.944,69.761 595.858,69.639 595.836,69.465C595.829,69.411 595.818,69.357 595.815,69.305C595.809,68.545 595.8,67.787 595.944,67.036C596.086,66.292 596.183,65.539 596.325,64.795C596.549,63.626 596.77,62.454 597.034,61.294C597.745,58.175 598.648,55.116 599.731,52.105C600.402,50.244 601.149,48.415 601.945,46.605C601.968,46.556 601.993,46.508 602.013,46.458C602.088,46.291 602.223,46.207 602.397,46.214C602.911,46.23 603.426,46.234 603.938,46.286C604.53,46.345 605.114,46.461 605.703,46.535C606.775,46.669 607.852,46.784 608.924,46.922C609.942,47.053 610.958,47.202 611.976,47.34C612.459,47.406 612.942,47.46 613.425,47.524C614.63,47.68 615.835,47.84 617.043,47.994C617.659,48.073 618.279,48.134 618.896,48.213C619.539,48.295 620.18,48.394 620.823,48.478C621.412,48.555 622.003,48.616 622.595,48.693C623.238,48.774 623.881,48.865 624.522,48.948C625.032,49.016 625.54,49.084 626.05,49.147C626.669,49.222 627.287,49.283 627.903,49.362C628.519,49.441 629.133,49.536 629.749,49.616C630.339,49.692 630.932,49.753 631.521,49.828C632.192,49.914 632.86,50.009 633.53,50.097C633.986,50.158 634.442,50.217 634.898,50.271C635.516,50.346 636.135,50.409 636.751,50.486C637.394,50.565 638.037,50.656 638.678,50.742C639.161,50.805 639.642,50.871 640.125,50.929C640.743,51.004 641.362,51.067 641.978,51.144C642.621,51.226 643.262,51.318 643.905,51.404C644.388,51.468 644.871,51.529 645.354,51.588C646.429,51.716 647.503,51.834 648.575,51.97C649.62,52.101 650.663,52.259 651.708,52.388C652.487,52.485 653.267,52.56 654.046,52.639C654.197,52.655 654.29,52.569 654.315,52.406C654.604,50.568 655.209,48.84 656.116,47.216C656.592,46.361 657.156,45.567 657.782,44.814C657.867,44.71 657.958,44.608 658.034,44.498C658.057,44.464 658.052,44.378 658.025,44.351C657.872,44.199 657.714,44.05 657.545,43.916C656.739,43.276 655.926,42.643 655.118,42.005C651.888,39.45 648.661,36.894 645.431,34.341C642.732,32.208 640.035,30.073 637.331,27.945C633.647,25.046 629.966,22.149 626.271,19.263C625.443,18.616 625.734,18.589 624.895,19.279C622.062,21.606 619.449,24.162 616.979,26.869C615.133,28.893 613.409,31.019 611.793,33.231C610.513,34.981 609.333,36.799 608.242,38.674C608.134,38.86 608.012,39.038 607.881,39.21C607.78,39.346 607.629,39.416 607.459,39.427C607.297,39.436 607.134,39.443 606.974,39.427C606.656,39.398 606.367,39.14 606.29,38.817C606.231,38.575 606.225,38.33 606.342,38.102C606.453,37.885 606.57,37.672 606.692,37.462C608.484,34.355 610.563,31.448 612.829,28.674C615.269,25.688 617.918,22.9 620.749,20.285C621.825,19.293 622.936,18.341 624.075,17.422C624.245,17.287 624.407,17.142 624.585,17.02C624.764,16.895 624.965,16.812 625.19,16.816C625.326,16.818 625.461,16.816 625.597,16.816C625.879,16.816 626.118,16.929 626.337,17.103C629.562,19.664 632.785,22.226 636.017,24.777C640.037,27.95 644.061,31.111 648.085,34.278C651.789,37.193 655.495,40.106 659.201,43.019C659.479,43.236 659.759,43.448 660.039,43.661C660.192,43.778 660.318,43.914 660.395,44.095C660.463,44.251 660.483,44.407 660.431,44.57C660.336,44.857 660.199,45.115 659.982,45.334C659.716,45.606 659.454,45.879 659.21,46.171C657.818,47.842 656.858,49.738 656.362,51.857C656.233,52.409 656.132,52.972 656.107,53.542C656.098,53.732 656.093,53.921 656.062,54.107C655.992,54.498 655.917,54.559 655.538,54.564C655.051,54.568 654.568,54.557 654.085,54.46C653.583,54.358 653.069,54.317 652.559,54.254C651.94,54.179 651.322,54.121 650.706,54.041C649.688,53.908 648.672,53.763 647.654,53.625C647.198,53.564 646.74,53.539 646.287,53.458C645.675,53.352 645.052,53.306 644.436,53.234C643.98,53.18 643.524,53.121 643.068,53.064C641.782,52.899 640.493,52.739 639.209,52.569C638.218,52.438 637.229,52.289 636.238,52.157C635.622,52.076 635.004,52.015 634.385,51.936C633.742,51.854 633.101,51.759 632.458,51.676C631.921,51.606 631.386,51.545 630.849,51.474C629.668,51.323 628.49,51.165 627.312,51.015C626.696,50.936 626.075,50.875 625.459,50.798C624.816,50.717 624.172,50.626 623.531,50.54C623.048,50.477 622.568,50.412 622.085,50.355C621.01,50.226 619.936,50.106 618.864,49.973C617.792,49.837 616.722,49.686 615.65,49.548C615.034,49.469 614.413,49.41 613.797,49.333C613.154,49.254 612.51,49.163 611.867,49.08C611.357,49.012 610.849,48.944 610.339,48.883C609.292,48.756 608.245,48.641 607.2,48.507C606.155,48.374 605.112,48.225 604.067,48.084C603.88,48.06 603.69,48.051 603.501,48.044C603.383,48.039 603.286,48.103 603.241,48.207C602.999,48.752 602.751,49.294 602.53,49.846C601.589,52.182 600.738,54.552 600.02,56.968C599.404,59.044 598.856,61.138 598.434,63.264C598.233,64.273 598.034,65.281 597.847,66.292C597.797,66.557 597.795,66.83 597.774,67.102C597.768,67.192 597.908,67.285 598.005,67.256C598.109,67.224 598.21,67.188 598.312,67.154C599.239,66.851 600.183,66.647 601.16,66.557C603.647,66.326 606.004,66.815 608.276,67.785C609.45,68.287 610.549,68.925 611.565,69.705C613.109,70.89 614.397,72.301 615.354,74.006C616.011,75.178 616.433,76.431 616.611,77.758C616.709,78.484 616.681,79.221 616.616,79.952C616.587,80.282 616.596,80.291 616.955,80.316C617.846,80.382 618.729,80.499 619.584,80.775C620.153,80.958 620.685,81.218 621.213,81.499C622.042,81.94 622.721,82.546 623.285,83.288L624.809,85.294C624.89,85.4 624.974,85.509 625.066,85.604C625.089,85.626 625.193,85.619 625.202,85.604C625.371,85.235 625.536,84.864 625.687,84.489C625.714,84.421 625.7,84.326 625.68,84.253C625.432,83.41 625.03,82.645 624.448,81.987C623.394,80.796 622.089,80.013 620.55,79.631C619.999,79.495 619.439,79.405 618.882,79.296C618.559,79.233 618.257,79.129 618.006,78.903C617.857,78.769 617.758,78.618 617.765,78.412C617.772,78.222 617.778,78.032 617.794,77.844C617.902,76.465 617.652,75.144 617.119,73.875C616.009,71.231 614.201,69.207 611.7,67.816C610.917,67.38 610.075,67.084 609.193,66.914C608.956,66.869 608.714,66.815 608.488,66.731C608.166,66.611 608.06,66.154 608.297,65.919C608.545,65.673 608.795,65.415 609.087,65.22C609.989,64.619 610.94,64.11 611.989,63.798C612.662,63.596 613.316,63.343 613.998,63.158C615.582,62.73 617.196,62.583 618.823,62.726C621.051,62.922 623.1,63.639 624.87,65.048C625.272,65.367 625.635,65.736 626.007,66.091C626.141,66.215 626.262,66.24 626.443,66.19C628.847,65.548 631.253,64.917 633.656,64.282C634.832,63.972 636.008,63.657 637.184,63.343C637.34,63.302 637.498,63.255 637.642,63.183C637.699,63.155 637.746,63.06 637.753,62.993C637.764,62.886 637.748,62.775 637.721,62.671C637.613,62.253 637.502,61.832 637.38,61.419C637.083,60.396 636.947,59.356 636.929,58.291C636.92,57.766 637.121,57.343 637.396,56.936C637.566,56.685 637.812,56.506 638.1,56.407C638.432,56.292 638.768,56.181 639.125,56.179C639.667,56.174 640.208,56.158 640.748,56.183C641.346,56.212 641.917,56.393 642.472,56.613C643.515,57.024 644.452,57.612 645.264,58.39C645.833,58.935 646.363,59.514 646.831,60.148C646.912,60.256 647,60.36 647.074,60.473C647.201,60.665 647.363,60.663 647.566,60.609C648.27,60.417 648.979,60.24 649.686,60.055C651.123,59.677 652.563,59.302 653.999,58.917C654.389,58.813 654.78,58.698 655.161,58.562C655.475,58.451 655.793,58.42 656.12,58.427C656.454,58.433 656.662,58.601 656.764,58.938C656.849,59.223 656.91,59.517 657.016,59.792C657.533,61.145 658.249,62.384 659.156,63.51C660.379,65.03 661.86,66.24 663.591,67.136C665.069,67.9 666.633,68.389 668.292,68.588C668.94,68.665 669.588,68.73 670.233,68.68C671.858,68.551 673.45,68.264 674.93,67.534C675.048,67.475 675.185,67.443 675.316,67.432C675.504,67.416 675.695,67.43 675.885,67.432C676.025,67.432 676.154,67.479 676.251,67.581C676.418,67.758 676.589,67.932 676.745,68.12C679.286,71.225 681.823,74.33 684.362,77.437C685.048,78.276 685.735,79.115 686.423,79.954C686.509,80.058 686.603,80.155 686.696,80.253C686.764,80.323 686.908,80.316 686.989,80.241C687.048,80.187 687.109,80.131 687.163,80.072C688.721,78.412 690.291,76.763 691.777,75.038C692.713,73.948 693.659,72.867 694.598,71.779C694.898,71.43 695.189,71.071 695.48,70.716C696.333,69.669 696.864,68.459 697.232,67.172C697.295,66.948 697.268,66.833 697.022,66.726C696.376,66.446 695.738,66.154 695.092,65.874C692.217,64.621 689.339,63.37 686.461,62.12C685.543,61.722 684.631,61.31 683.705,60.932C683.29,60.763 682.979,60.466 682.676,60.163C682.505,59.991 682.433,59.77 682.534,59.494C682.708,59.012 682.843,58.512 682.976,58.017C683.155,57.364 683.261,56.696 683.308,56.018C683.342,55.532 683.41,55.048 683.392,54.557C683.256,50.855 681.965,47.643 679.37,44.975C678.53,44.111 677.566,43.426 676.512,42.851C675.242,42.161 673.897,41.671 672.479,41.411C670.953,41.132 669.419,41.11 667.875,41.334C666.248,41.569 664.726,42.094 663.28,42.856C662.968,43.019 662.677,43.222 662.363,43.38C661.998,43.564 661.625,43.523 661.282,43.306C660.964,43.104 660.799,42.682 660.885,42.311C660.923,42.148 661.007,42.003 661.14,41.906C661.336,41.761 661.539,41.628 661.749,41.506C663.354,40.569 665.078,39.947 666.904,39.624C668.026,39.425 669.164,39.387 670.301,39.42C673.919,39.527 677.129,40.734 679.891,43.075C682.453,45.244 684.091,47.996 684.886,51.26C685.308,52.994 685.346,54.751 685.186,56.513C685.105,57.4 684.927,58.28 684.669,59.139C684.617,59.309 684.656,59.408 684.798,59.471C685.389,59.738 685.983,60.003 686.576,60.263C688.089,60.923 689.603,61.579 691.115,62.235L696.697,64.657C696.722,64.668 696.749,64.675 696.774,64.684L697.742,65.082C697.954,64.999 697.949,64.784 698.013,64.614C698.089,64.413 698.137,64.2 698.2,63.992C698.864,61.814 699.663,59.688 700.635,57.626C702.728,53.189 705.332,49.084 708.485,45.33C708.833,44.916 709.162,44.484 709.526,44.081C710.203,43.328 711.006,42.736 711.889,42.245C713.083,41.58 714.356,41.121 715.708,40.942C716.782,40.8 717.865,40.786 718.935,41.046C719.79,41.257 720.438,41.768 720.964,42.449C721.043,42.55 721.088,42.693 721.106,42.822C721.16,43.199 721.138,43.577 721.066,43.955C720.885,44.914 720.632,45.855 720.373,46.793C720.208,47.392 720.03,47.989 719.928,48.607C719.813,49.303 719.732,50.002 719.698,50.706C719.666,51.355 719.651,52.006 719.642,52.657C719.637,52.956 719.648,53.257 719.689,53.551C719.84,54.65 720.014,55.747 720.215,56.839C720.431,58.01 720.664,59.177 720.82,60.36C720.944,61.299 721.102,62.235 721.233,63.174C721.278,63.495 721.296,63.823 721.305,64.146C721.318,64.689 721.321,65.232 721.314,65.774C721.305,66.588 721.219,67.394 721.016,68.187C720.849,68.843 720.786,69.519 720.768,70.2C720.732,71.48 720.833,72.744 721.054,74.004C721.129,74.432 721.212,74.859 721.244,75.289C721.289,75.915 721.239,75.829 721.838,76.101C724.104,77.13 726.374,78.149 728.633,79.19C729.297,79.495 729.974,79.764 730.651,80.04C730.976,80.171 731.308,80.289 731.586,80.52C731.685,80.603 731.825,80.637 731.949,80.694C734.116,81.682 736.28,82.673 738.447,83.659C741.352,84.979 744.261,86.296 747.168,87.614C748.276,88.116 749.387,88.616 750.497,89.116C750.635,89.179 750.775,89.107 750.799,88.969C750.809,88.914 750.82,88.862 750.827,88.808C750.878,88.378 750.937,87.949 750.98,87.517C751.052,86.761 751.111,86.004 751.183,85.249C751.334,83.654 751.371,82.055 751.398,80.454C751.404,80.02 751.459,79.588 751.45,79.154C751.411,77.5 751.382,75.845 751.298,74.192C751.237,72.975 751.115,71.761 750.987,70.548C750.881,69.553 750.721,68.563 750.583,67.572C750.526,67.17 750.456,66.769 750.411,66.367C750.274,65.125 749.985,63.913 749.721,62.699C749.387,61.165 749.012,59.641 748.594,58.126C747.728,54.989 746.66,51.922 745.408,48.921C745.042,48.046 744.636,47.189 744.256,46.32C744.168,46.117 744.028,46.042 743.816,46.038C743.302,46.026 742.789,45.992 742.275,45.99C735.912,45.968 729.548,45.95 723.185,45.929C722.725,45.929 722.264,45.913 721.804,45.9C721.664,45.895 721.578,45.757 721.616,45.61C721.637,45.531 721.655,45.452 721.68,45.375C721.72,45.246 721.761,45.117 721.808,44.988C722.16,44.036 721.939,44.163 722.989,44.161C726.537,44.154 730.082,44.158 733.63,44.158L733.63,44.172L733.617,44.172L733.63,44.197L733.63,44.172ZM666.171,87.203C664.948,87.241 663.845,87.246 662.74,87.386C661.476,87.544 660.235,87.788 659.012,88.123C658.337,88.308 657.662,88.507 657.032,88.833C656.504,89.104 655.992,89.412 655.416,89.579C655.367,89.593 655.324,89.636 655.276,89.661C655.093,89.76 655.064,89.903 655.195,90.05C655.888,90.835 656.716,91.418 657.682,91.823C659.323,92.508 661.045,92.818 662.803,92.933C663.963,93.008 665.124,92.981 666.284,92.834C667.358,92.698 668.414,92.504 669.45,92.187C670.382,91.902 671.287,91.545 672.172,91.147C673.305,90.638 674.409,90.061 675.522,89.512C675.625,89.46 675.634,89.301 675.535,89.254C675.05,89.019 674.574,88.756 674.075,88.557C672.177,87.802 670.191,87.431 668.164,87.275C667.465,87.221 666.762,87.223 666.173,87.203L666.171,87.203ZM632.034,73.796C632.28,73.871 632.383,73.785 632.474,73.681L634.825,70.987C635.146,70.619 635.451,70.239 635.706,69.82C636.295,68.848 636.857,67.857 637.326,66.819C637.471,66.5 637.586,66.166 637.696,65.831C637.746,65.679 637.757,65.512 637.78,65.351C637.8,65.193 637.694,65.075 637.554,65.1C637.394,65.13 637.236,65.161 637.08,65.202L634.257,65.944C632.164,66.493 630.075,67.043 627.982,67.595C627.799,67.642 627.621,67.703 627.445,67.771C627.413,67.783 627.377,67.864 627.389,67.898C627.443,68.049 627.506,68.199 627.576,68.343C628.264,69.748 628.666,71.225 628.691,72.796C628.691,72.932 628.702,73.068 628.709,73.203C628.716,73.312 628.808,73.396 628.923,73.4C629.032,73.405 629.14,73.407 629.248,73.405C629.928,73.384 630.6,73.441 631.262,73.597C631.551,73.665 631.837,73.744 632.031,73.794L632.034,73.796ZM719.312,76.6C719.253,76.632 719.188,76.648 719.172,76.684C719.107,76.831 719.046,76.983 719.003,77.139C718.791,77.894 718.619,78.663 718.364,79.405C718.089,80.201 717.895,81.013 717.678,81.822C717.091,83.993 716.446,86.144 715.563,88.218C715.125,89.247 714.577,90.21 713.855,91.065C713.209,91.832 712.559,92.596 711.882,93.334C710.469,94.869 708.982,96.335 707.479,97.782C706.404,98.818 705.235,99.741 704.03,100.62C703.856,100.747 703.671,100.862 703.481,100.964C703.391,101.012 703.269,101.048 703.172,101.03C702.818,100.971 702.497,100.84 702.256,100.555C702.166,100.446 702.111,100.329 702.093,100.191C702.05,99.872 702.132,99.598 702.393,99.397C702.5,99.313 702.61,99.236 702.721,99.157C704.215,98.074 705.623,96.891 706.928,95.582C707.731,94.776 708.539,93.974 709.336,93.162C710.379,92.096 711.376,90.986 712.318,89.83C712.868,89.154 713.34,88.428 713.683,87.625C713.897,87.128 714.11,86.628 714.301,86.124C714.87,84.629 715.331,83.1 715.753,81.558C716.145,80.122 716.507,78.676 716.929,77.249C717.527,75.223 718.093,73.19 718.594,71.139C719.08,69.158 719.326,67.145 719.432,65.112C719.441,64.949 719.436,64.786 719.425,64.623C719.323,63.325 719.143,62.038 718.951,60.751C718.768,59.521 718.549,58.293 718.319,57.07C718.039,55.579 717.777,54.087 717.669,52.571C717.653,52.357 717.606,52.142 717.563,51.931C717.556,51.893 717.506,51.861 717.47,51.834C717.464,51.83 717.416,51.857 717.407,51.877C717.238,52.246 717.06,52.61 716.904,52.985C715.931,55.344 715.204,57.78 714.608,60.258C714.304,61.52 714.031,62.791 713.73,64.056C713.299,65.874 712.78,67.667 712.281,69.467C712.015,70.433 711.771,71.406 711.566,72.385C711.354,73.391 711.212,74.411 711.022,75.422C710.781,76.713 710.327,77.91 709.591,79.016C708.463,80.71 707.246,82.336 705.96,83.91C703.881,86.452 701.628,88.833 699.225,91.07C697.934,92.271 696.593,93.408 695.18,94.464C694.679,94.84 694.142,95.147 693.596,95.448C693.235,95.647 692.869,95.634 692.497,95.539C692.397,95.514 692.296,95.446 692.223,95.371C691.797,94.928 691.795,94.356 692.309,93.967C692.438,93.87 692.594,93.811 692.731,93.725C693.119,93.478 693.519,93.245 693.889,92.974C695.336,91.918 696.69,90.753 697.99,89.523C701.166,86.517 704.107,83.301 706.675,79.753C707.233,78.984 707.767,78.204 708.271,77.399C708.605,76.865 708.858,76.304 708.979,75.682C709.063,75.257 709.174,74.839 709.253,74.413C709.388,73.694 709.501,72.973 709.636,72.254C709.898,70.87 710.257,69.508 710.641,68.153C711.047,66.722 711.44,65.286 711.801,63.841C712.169,62.371 712.473,60.885 712.834,59.413C713.577,56.382 714.516,53.419 715.823,50.579C716.628,48.828 717.491,47.112 718.533,45.49C718.946,44.848 719.073,44.143 719.17,43.417C719.204,43.166 719.093,42.982 718.876,42.887C718.628,42.779 718.378,42.677 718.105,42.65C717.427,42.584 716.748,42.573 716.08,42.695C715.173,42.86 714.301,43.15 713.469,43.557C712.534,44.014 711.69,44.588 711.013,45.389C710.435,46.072 709.846,46.743 709.28,47.438C707.235,49.943 705.465,52.632 703.906,55.464C703.186,56.769 702.527,58.103 701.917,59.465C701.398,60.627 700.922,61.81 700.527,63.02C699.988,64.666 699.5,66.328 698.994,67.986C698.516,69.558 697.825,71.017 696.733,72.265C696.02,73.081 695.327,73.914 694.616,74.735C693.711,75.779 692.812,76.829 691.887,77.855C690.98,78.862 690.048,79.846 689.12,80.834C688.544,81.447 687.967,82.057 687.375,82.652C686.572,83.46 685.757,84.253 684.942,85.047C684.148,85.823 683.353,86.601 682.543,87.361C682.168,87.711 681.78,88.062 681.354,88.34C680.358,88.991 679.345,89.62 678.32,90.224C676.966,91.02 675.544,91.687 674.129,92.368C673.032,92.895 671.908,93.365 670.753,93.745C669.775,94.066 668.78,94.311 667.76,94.455C666.821,94.589 665.886,94.704 664.936,94.733C663.417,94.779 661.91,94.648 660.404,94.455C659.068,94.286 657.818,93.874 656.664,93.196C654.522,91.934 652.805,90.237 651.582,88.057C650.464,86.065 649.866,83.914 649.661,81.648C649.602,81.001 649.564,80.352 649.507,79.703C649.41,78.57 649.363,77.43 649.331,76.293C649.284,74.667 649.198,73.045 649.013,71.426C648.893,70.374 648.717,69.334 648.476,68.307C648.015,66.344 647.309,64.476 646.323,62.717C645.804,61.792 645.19,60.935 644.504,60.127C643.617,59.085 642.513,58.388 641.193,58.035C640.554,57.866 639.906,57.886 639.258,57.976C639.037,58.008 638.868,58.212 638.87,58.431C638.875,58.92 638.89,59.406 638.981,59.89C639.105,60.557 639.297,61.206 639.475,61.857C639.728,62.778 639.868,63.721 639.816,64.671C639.753,65.815 639.486,66.923 638.965,67.952C638.547,68.773 638.096,69.576 637.663,70.388C637.29,71.087 636.827,71.72 636.299,72.306C635.284,73.434 634.266,74.558 633.354,75.775C632.785,76.532 632.164,77.256 631.623,78.032C630.212,80.056 628.899,82.139 627.883,84.398C627.195,85.931 626.551,87.478 626.043,89.084C625.337,91.314 624.865,93.589 624.649,95.914C624.549,96.993 624.518,98.078 624.484,99.164C624.452,100.168 624.511,101.17 624.558,102.172C624.635,103.773 624.807,105.358 625.08,106.935C625.312,108.269 625.624,109.585 626.012,110.883C626.502,112.523 627.172,114.09 627.928,115.623C629.452,118.715 631.44,121.472 633.832,123.939C635.058,125.203 636.284,126.47 637.518,127.725C638.164,128.381 638.836,129.012 639.488,129.663C640.371,130.543 641.267,131.411 642.118,132.323C642.926,133.189 642.716,132.997 643.815,133.311C643.84,133.318 643.869,133.32 643.896,133.325C644.619,133.453 645.314,133.668 645.986,133.96C646.508,134.186 647.027,134.415 647.55,134.634C649.399,135.407 651.2,136.276 652.979,137.199C654.154,137.809 655.321,138.438 656.502,139.046C659.824,140.754 663.189,142.371 666.575,143.945C668.538,144.858 670.525,145.711 672.567,146.428C673.79,146.858 675.036,147.224 676.3,147.516C677.539,147.803 678.783,148.036 680.045,148.201C680.85,148.307 681.658,148.393 682.464,148.436C684.737,148.556 687.005,148.488 689.269,148.19C690.395,148.04 691.517,147.88 692.636,147.69C693.943,147.471 695.237,147.19 696.523,146.887C697.39,146.684 698.259,146.482 699.13,146.29C699.579,146.191 700.033,146.123 700.482,146.032C701.834,145.756 703.172,145.426 704.481,144.994C707.131,144.119 709.67,142.975 712.18,141.767C712.25,141.733 712.309,141.67 712.369,141.618C712.385,141.604 712.394,141.584 712.406,141.568C712.381,141.557 712.351,141.532 712.331,141.539C712.017,141.62 711.71,141.717 711.394,141.79C709.812,142.145 708.228,142.479 706.612,142.653C705.158,142.81 703.705,142.934 702.24,142.905C701.728,142.893 701.215,142.828 700.703,142.805C699.642,142.758 698.611,142.554 697.593,142.267C696.647,141.998 695.78,141.566 695.015,140.935C694.541,140.543 694.205,140.066 694.045,139.471C693.896,138.922 694.02,138.458 694.465,138.085C694.656,137.925 694.878,137.825 695.106,137.744C695.462,137.617 695.826,137.513 696.184,137.391C696.647,137.233 697.094,137.04 697.505,136.773C697.911,136.511 698.074,136.208 697.633,135.697C697.478,135.516 697.272,135.371 697.074,135.231C696.92,135.123 696.746,135.041 696.575,134.96C695.559,134.473 694.476,134.245 693.365,134.173C691.278,134.035 689.208,134.2 687.15,134.589C685.443,134.91 683.78,135.36 682.153,135.962C681.11,136.346 680.099,136.803 679.182,137.443C678.72,137.766 678.736,137.766 678.957,138.214C679.018,138.336 679.079,138.456 679.137,138.578C679.753,139.876 680.476,141.118 681.148,142.387C681.453,142.961 681.735,143.547 681.907,144.178C681.931,144.273 681.841,144.399 681.737,144.402C681.25,144.42 680.765,144.436 680.277,144.445C680.092,144.449 679.979,144.329 679.916,144.169C679.647,143.486 679.291,142.848 678.939,142.208C677.815,140.168 676.743,138.101 675.937,135.907C675.583,134.944 675.219,133.989 675.068,132.956C674.867,131.588 674.878,129.686 675.201,128.351C675.713,126.228 676.697,124.351 678.158,122.729C679.232,121.537 680.406,120.452 681.728,119.543C683.245,118.5 684.787,117.494 686.414,116.628C688.348,115.599 690.289,114.576 692.228,113.556C693.257,113.014 694.277,112.457 695.268,111.842C696.485,111.084 697.737,110.383 698.958,109.633C702.513,107.443 705.921,105.046 709.133,102.371C710.548,101.19 711.914,99.953 713.202,98.632C714.132,97.68 715.01,96.685 715.721,95.557C716.053,95.03 716.371,94.494 716.676,93.951C717.342,92.764 717.825,91.499 718.161,90.183C718.497,88.869 718.669,87.524 718.84,86.183C718.924,85.538 718.967,84.889 719.043,84.242C719.19,83.003 719.258,81.759 719.305,80.513C719.323,80.051 719.328,79.59 719.332,79.129C719.339,78.29 719.359,77.448 719.314,76.6L719.312,76.6ZM677.654,88.363C677.797,88.286 677.941,88.213 678.079,88.13C678.582,87.813 679.081,87.487 679.589,87.175C680.236,86.777 680.828,86.307 681.372,85.773C682.647,84.52 683.924,83.27 685.2,82.017C685.258,81.96 685.315,81.904 685.371,81.843C685.448,81.759 685.461,81.632 685.4,81.553C685.335,81.467 685.27,81.381 685.2,81.298C683.279,78.95 681.358,76.6 679.44,74.253C678.291,72.848 677.144,71.442 675.998,70.035C675.878,69.888 675.759,69.741 675.632,69.599C675.519,69.472 675.395,69.386 675.21,69.474C675.09,69.533 674.955,69.562 674.826,69.608C673.362,70.13 671.843,70.349 670.299,70.444C669.757,70.478 669.22,70.406 668.681,70.372C667.868,70.32 667.069,70.189 666.281,69.994C664.884,69.646 663.557,69.133 662.305,68.409C661.291,67.823 660.359,67.131 659.477,66.371C657.77,64.901 656.457,63.128 655.504,61.086L655.233,60.503C654.983,60.399 654.768,60.586 654.531,60.589C654.504,60.589 654.477,60.598 654.452,60.607L648.968,62.056C648.785,62.104 648.605,62.16 648.424,62.217C648.331,62.246 648.28,62.386 648.325,62.488C648.37,62.588 648.419,62.683 648.465,62.78C648.753,63.422 649.063,64.056 649.325,64.707C650.033,66.471 650.509,68.303 650.774,70.187C650.846,70.695 650.882,71.211 650.963,71.718C651.135,72.792 651.153,73.877 651.205,74.956C651.279,76.499 651.322,78.043 651.428,79.586C651.469,80.18 651.521,80.775 651.611,81.363C651.791,82.539 652.037,83.704 652.358,84.853C652.658,85.929 653.076,86.951 653.615,87.926C653.667,88.021 653.726,88.112 653.784,88.202C653.884,88.354 653.983,88.388 654.116,88.304C654.299,88.191 654.5,88.091 654.656,87.947C654.897,87.72 655.175,87.555 655.464,87.411C655.949,87.171 656.434,86.931 656.924,86.707C659.395,85.576 662.004,85.07 664.708,85.016C666.008,84.988 667.299,85.104 668.588,85.262C669.798,85.409 670.99,85.633 672.159,85.972C674.086,86.533 675.953,87.232 677.65,88.36L677.654,88.363ZM675.495,156.636C677.055,156.616 678.613,156.517 680.171,156.422C680.279,156.415 680.388,156.408 680.494,156.397C681.327,156.309 682.159,156.221 682.992,156.128C683.584,156.062 684.175,156.001 684.762,155.911C685.563,155.786 686.357,155.626 687.159,155.501C688.655,155.266 690.136,154.956 691.607,154.61C694.925,153.832 698.177,152.826 701.367,151.616C702.326,151.252 703.249,150.788 704.253,150.544C704.357,150.519 704.452,150.46 704.551,150.415C707.524,149.099 710.392,147.581 713.168,145.89C715.877,144.239 718.475,142.432 720.98,140.487C724.731,137.572 728.227,134.374 731.468,130.898C733.946,128.238 736.244,125.429 738.348,122.46C740.954,118.781 743.232,114.916 745.058,110.784C746.43,107.679 747.511,104.478 748.199,101.152C748.337,100.491 748.482,99.824 748.38,99.139C748.324,98.764 748.294,98.384 748.217,98.013C747.744,95.726 746.746,93.716 745.053,92.083C743.015,90.118 740.584,89.084 737.752,89.019C737.508,89.014 737.264,89.019 737.02,89.021C735.621,89.046 734.283,89.358 733.012,89.93C729.775,91.386 727.597,93.815 726.462,97.183C726.401,97.361 726.352,97.547 726.286,97.723C726.196,97.961 726.036,98.144 725.812,98.259C725.577,98.381 725.345,98.368 725.124,98.212C724.914,98.062 724.803,97.85 724.731,97.612C724.67,97.407 724.639,97.187 724.555,96.99C724.203,96.16 723.724,95.41 723.095,94.758C722.488,94.13 721.804,93.598 721.05,93.166C720.628,92.924 720.181,92.73 719.741,92.519C719.608,92.456 719.477,92.519 719.414,92.66C719.38,92.734 719.357,92.811 719.323,92.886C718.969,93.707 718.608,94.521 718.17,95.303C717.306,96.853 716.265,98.264 715.015,99.521C714.403,100.136 713.782,100.74 713.155,101.342C711.803,102.638 710.363,103.827 708.9,104.994C707.099,106.43 705.307,107.873 703.448,109.232C703.075,109.504 702.691,109.757 702.29,109.981C700.635,110.904 698.983,111.829 697.358,112.803C696.663,113.219 695.984,113.667 695.234,113.988C694.991,114.092 694.781,114.276 694.559,114.429C694.539,114.443 694.548,114.551 694.564,114.558C695.18,114.782 695.826,114.861 696.471,114.895C697.586,114.952 698.685,114.814 699.762,114.524C700.051,114.447 700.34,114.382 700.64,114.389C700.924,114.395 701.159,114.499 701.362,114.705C701.576,114.922 701.71,115.187 701.845,115.452C702.425,116.582 703.294,117.471 704.224,118.308C704.24,118.321 704.287,118.328 704.301,118.315C704.335,118.288 704.386,118.245 704.384,118.211C704.375,118.077 704.355,117.941 704.328,117.81C704.244,117.385 704.12,116.965 704.079,116.537C703.955,115.203 704.073,113.889 704.47,112.6C705.066,110.668 706.106,109.011 707.483,107.552C708.74,106.22 710.203,105.157 711.812,104.291C713.613,103.321 715.525,102.66 717.527,102.278C718.588,102.074 719.662,101.932 720.747,101.925C721.587,101.921 722.42,101.936 723.26,102.027C724.422,102.151 725.555,102.38 726.67,102.714C727.552,102.981 728.387,103.368 729.223,103.75C730.268,104.227 731.213,104.849 732.051,105.632C734.533,107.945 736.161,110.775 737.034,114.047C737.23,114.782 737.332,115.531 737.415,116.286C737.533,117.374 737.485,118.444 737.253,119.516C736.858,121.332 736.174,123.028 735.285,124.654C733.617,127.707 731.459,130.369 728.895,132.7C727.331,134.123 725.679,135.441 723.973,136.688C720.619,139.134 717.064,141.249 713.365,143.122C711.433,144.099 709.458,144.981 707.442,145.77C706.158,146.272 704.867,146.756 703.529,147.095C702.612,147.328 701.689,147.534 700.771,147.758C698.958,148.199 697.157,148.674 695.329,149.045C693.873,149.341 692.413,149.621 690.937,149.798C690.427,149.859 689.915,149.909 689.407,149.983C688.362,150.135 687.308,150.196 686.254,150.232C684.766,150.284 683.281,150.27 681.792,150.148C680.631,150.053 679.476,149.927 678.329,149.737C676.623,149.454 674.944,149.04 673.289,148.524C671.039,147.821 668.863,146.932 666.724,145.953C664.83,145.085 662.948,144.191 661.072,143.287C659.56,142.558 658.059,141.808 656.565,141.043C655.021,140.256 653.493,139.442 651.956,138.644C650.033,137.644 648.058,136.769 646.029,136.007C644.325,135.367 642.574,134.923 640.777,134.675C639.922,134.555 639.06,134.473 638.191,134.471C636.73,134.467 635.27,134.449 633.812,134.598C632.625,134.718 631.454,134.908 630.291,135.154C629.048,135.417 627.822,135.749 626.646,136.246C625.746,136.626 624.888,137.083 624.075,137.628C623.816,137.802 623.818,137.873 624.075,138.108C624.197,138.216 624.321,138.323 624.446,138.427C625.94,139.682 627.477,140.88 629.059,142.023C632.072,144.196 635.225,146.139 638.516,147.862C638.838,148.031 639.162,148.197 639.486,148.361C648.393,143.06 657.549,153.413 672.705,156.168C673.763,156.361 674.68,156.515 675.495,156.636ZM623.493,111.503C624.012,111.525 624.166,111.347 624.073,111.019C624.051,110.942 624.014,110.867 623.992,110.788C623.554,109.253 623.227,107.69 622.997,106.111C622.814,104.854 622.672,103.587 622.629,102.314C622.629,102.287 622.624,102.255 622.608,102.237C622.597,102.221 622.554,102.212 622.543,102.221C622.435,102.296 622.319,102.366 622.227,102.457C621.437,103.26 620.498,103.832 619.467,104.268C618.586,104.641 617.668,104.854 616.727,104.956C616.086,105.026 615.436,105.012 614.788,104.906C614.253,104.818 613.734,104.68 613.215,104.537C613.194,104.53 613.149,104.544 613.142,104.56C613.127,104.601 613.106,104.659 613.124,104.687C613.197,104.8 613.276,104.91 613.366,105.012C614.932,106.79 616.697,108.339 618.706,109.596C619.832,110.302 621.015,110.892 622.301,111.25C622.744,111.372 623.188,111.485 623.491,111.503L623.493,111.503ZM677.784,135.281C677.824,135.262 677.849,135.255 677.869,135.24C677.932,135.19 677.995,135.141 678.056,135.084C679.695,133.553 681.543,132.348 683.586,131.432C686.269,130.229 689.091,129.677 692.014,129.634C693.122,129.618 694.228,129.722 695.329,129.873C696.187,129.993 697.038,130.145 697.882,130.33C699.653,130.719 701.38,131.258 703.111,131.791C705.231,132.443 707.35,133.092 709.553,133.401C710.302,133.505 711.056,133.578 711.812,133.621C712.568,133.664 713.324,133.6 714.08,133.535C715.434,133.415 716.753,133.141 718.048,132.741C720.743,131.907 723.167,130.559 725.374,128.813C726.891,127.614 728.254,126.259 729.378,124.681C730.606,122.958 731.461,121.085 731.728,118.955C731.87,117.81 731.868,116.675 731.628,115.56C731.062,112.93 729.665,110.813 727.469,109.273C725.34,107.78 722.921,107.179 720.343,107.174C720.075,107.174 719.806,107.238 719.535,107.247C718.748,107.276 717.978,107.425 717.218,107.613C715.486,108.04 713.916,108.8 712.512,109.906C711.394,110.786 710.623,111.912 710.133,113.237C709.729,114.328 709.609,115.445 709.907,116.589C710.131,117.444 710.489,118.231 711.166,118.819C712.412,119.902 713.821,120.217 715.389,119.617C715.848,119.443 716.263,119.19 716.651,118.889C717.484,118.24 718.093,117.428 718.432,116.424C718.581,115.985 718.691,115.533 718.621,115.067C718.547,114.583 718.405,114.117 718.118,113.706C717.978,113.507 717.831,113.31 717.714,113.097C717.61,112.91 717.531,112.706 717.457,112.505C717.364,112.256 717.432,112.012 717.572,111.806C717.761,111.525 718.019,111.338 718.387,111.365C718.585,111.378 718.75,111.471 718.894,111.596C719.244,111.899 719.538,112.251 719.761,112.663C720.179,113.427 720.52,114.226 720.738,115.067C721.061,116.306 721.215,117.555 720.991,118.846C720.743,120.284 720.129,121.512 719.127,122.56C718.213,123.514 717.127,124.213 715.931,124.751C714.36,125.459 712.699,125.832 710.997,125.979C709.16,126.137 707.316,126.088 705.49,125.812C704.262,125.626 703.044,125.377 701.829,125.113C700.114,124.74 698.396,124.376 696.681,123.996C695.627,123.763 694.598,123.801 693.564,124.14C692.226,124.577 690.921,125.099 689.639,125.681C685.922,127.363 682.478,129.498 679.309,132.074C678.659,132.603 678.054,133.189 677.429,133.752C677.347,133.824 677.264,133.91 677.284,134.028C677.363,134.481 677.489,134.917 677.784,135.281ZM677.784,135.281L677.779,135.283L677.788,135.285L677.784,135.281ZM632.966,132.799C632.924,132.715 632.899,132.638 632.851,132.576C632,131.515 631.068,130.536 630.007,129.683C628.567,128.526 627.025,127.526 625.402,126.651C623.71,125.739 621.947,124.975 620.173,124.238C619.374,123.905 618.577,123.568 617.747,123.322C617.255,123.177 616.765,123.021 616.275,122.863C615.264,122.539 614.321,122.069 613.449,121.463C613.16,121.261 612.896,121.031 612.619,120.814C611.357,119.828 610.174,118.753 609.06,117.605C607.622,116.125 606.306,114.542 605.114,112.858C604.943,112.613 604.771,112.371 604.595,112.129C604.548,112.064 604.489,112.007 604.435,111.948C604.421,111.933 604.401,111.924 604.383,111.912C604.374,111.962 604.34,112.025 604.358,112.061C605.669,114.859 607.03,117.627 608.622,120.278C609.403,121.58 610.226,122.854 611.208,124.018C611.278,124.102 611.337,124.192 611.396,124.283C611.8,124.894 612.244,125.472 612.687,126.054C615.454,129.686 618.528,133.037 621.866,136.145C621.965,136.237 622.064,136.332 622.179,136.398C622.238,136.432 622.34,136.432 622.407,136.405C622.507,136.366 622.593,136.294 622.681,136.233C624.186,135.195 625.816,134.426 627.576,133.926C629.086,133.496 630.616,133.169 632.174,132.974C632.438,132.94 632.703,132.9 632.966,132.799ZM632.966,132.799L632.968,132.804L632.97,132.798L632.966,132.799Z" style="fill:rgb(44,21,17);"/>
        </g>
    </g>
</svg>
